<svg width="130" height="129" viewBox="0 0 130 129" fill="none" xmlns="http://www.w3.org/2000/svg">
<path d="M50.1028 13.6131C48.8063 14.0453 47.6179 13.8292 46.7535 12.9649C45.7812 12.2086 45.0249 10.9121 44.4847 9.07543C43.9445 7.23875 43.8365 5.72621 44.2686 4.53776C44.7008 3.34932 45.4571 2.59303 46.7535 2.16087C47.8339 1.83675 48.8063 1.9448 49.5626 2.37696C50.3189 2.80912 50.9671 3.67344 51.3993 4.96992L49.8867 5.40207C49.3465 3.67343 48.3741 3.0252 47.0776 3.45736C45.349 3.99756 44.9169 5.72619 45.7812 8.64328C46.6455 11.5604 47.942 12.8568 49.6706 12.3166C50.9671 11.8845 51.3993 10.9121 51.0751 9.18348L52.5877 8.75132C52.9118 10.0478 52.8038 11.0202 52.3716 11.8845C51.9395 12.7488 51.2912 13.289 50.1028 13.6131Z" fill="#21306F"/>
<path d="M54.9644 12.2086L53.3438 0.972408L54.7483 0.756348L56.1528 10.696L59.7181 10.1558L59.9342 11.4523L54.9644 12.2086Z" fill="#21306F"/>
<path d="M67.1728 11.2362L66.6326 9.18342L62.7432 9.29146L62.203 11.3442H60.6904L63.9316 0H65.1201L68.6854 11.2362H67.1728ZM63.0673 7.99497H66.2005L64.4718 2.05276L63.0673 7.99497Z" fill="#21306F"/>
<path d="M69.7656 11.5603L70.9541 0.324097L72.3586 0.432111L71.1702 11.6683L69.7656 11.5603Z" fill="#21306F"/>
<path d="M79.4898 13.289L77.8692 12.9649L76.5728 9.07542L76.2486 8.96741L75.0602 8.75132L74.3039 12.2086L72.8994 11.8845L75.2763 0.756348L77.8692 1.29655C79.0577 1.51263 80.03 2.05283 80.5702 2.91715C81.1104 3.78147 81.2185 4.75382 81.0024 5.94226C80.7863 6.80659 80.4622 7.56287 79.922 8.10307C79.3818 8.64327 78.7336 8.96738 77.9773 9.07542L79.4898 13.289ZM75.3843 7.45482L76.6808 7.77896C77.4371 7.887 78.0853 7.77894 78.6255 7.45482C79.1657 7.02266 79.4899 6.48249 79.7059 5.7262C79.922 4.96992 79.814 4.32166 79.4898 3.67341C79.1657 3.13321 78.6255 2.70105 77.8692 2.59301L76.5728 2.2689L75.3843 7.45482Z" fill="#21306F"/>
<path d="M80.5703 13.6131L84.4598 2.91711L89.5377 4.75378L89.1055 5.94223L85.3241 4.53772L84.0276 7.99498L87.809 9.39953L87.3769 10.588L83.5955 9.18343L82.299 12.7488L86.0804 14.1533L85.6482 15.3417L80.5703 13.6131Z" fill="#21306F"/>
<path d="M96.5598 14.8015C97.1 15.2337 97.4241 15.7739 97.5322 16.3141C97.6402 16.9623 97.5322 17.6106 97.1 18.2588C96.5598 19.1231 95.9116 19.5553 95.1553 19.7714C94.291 19.8794 93.4266 19.6634 92.4543 19.1232L89.8613 17.5025L95.8035 7.77893L98.5045 9.39953C99.3689 9.93973 100.017 10.588 100.233 11.3442C100.449 12.1005 100.341 12.8568 99.9091 13.6131C99.0448 14.8015 97.9644 15.2337 96.5598 14.8015ZM92.9945 17.9347C93.6427 18.3669 94.1829 18.4749 94.7231 18.3669C95.2633 18.2588 95.5875 17.9347 96.0196 17.3945C96.3438 16.8543 96.4518 16.4221 96.3437 15.8819C96.2357 15.4498 95.9116 15.0176 95.3714 14.6935L93.8588 13.7211L91.8061 17.0704L92.9945 17.9347ZM97.5322 10.3719L96.2357 9.61559L94.291 12.7488L95.5875 13.6131C96.1277 13.9372 96.6679 14.0452 97.1 13.9372C97.5322 13.8292 97.9644 13.5051 98.2885 13.0729C99.0448 11.9925 98.7206 11.0201 97.5322 10.3719Z" fill="#21306F"/>
<path d="M100.665 25.1734L101.53 23.2287L98.6124 20.7438L96.8838 22.0402L95.6953 21.0679L105.527 14.4774L106.391 15.2337L101.746 26.1458L100.665 25.1734ZM99.6928 19.9875L102.178 22.0402L104.771 16.4222L99.6928 19.9875Z" fill="#21306F"/>
<path d="M102.935 27.3342L110.173 20.4196L108.337 18.4749L109.309 17.5026L113.847 22.3644L112.874 23.3367L111.038 21.392L103.799 28.3066L102.935 27.3342Z" fill="#21306F"/>
<path d="M106.176 31.0076L115.143 23.985L116.007 25.0654L107.04 32.088L106.176 31.0076Z" fill="#21306F"/>
<path d="M109.525 36.1935C108.877 35.2212 108.769 34.3568 108.985 33.4925C109.201 32.6282 109.849 31.8719 110.822 31.2237L111.578 32.4121C110.93 32.8443 110.497 33.2765 110.389 33.8167C110.173 34.3569 110.281 34.8971 110.714 35.4373C111.038 35.8694 111.362 36.1935 111.794 36.3016C112.226 36.4096 112.658 36.3016 113.09 35.9775C113.955 35.4373 114.171 34.681 114.063 33.4925L113.847 31.98C113.631 30.4674 114.171 29.2789 115.359 28.5227C116.116 28.0905 116.872 27.8744 117.628 28.0905C118.384 28.3066 119.033 28.8468 119.573 29.6031C120.113 30.4674 120.329 31.3317 120.113 32.088C119.897 32.8443 119.357 33.4925 118.384 34.1408L117.628 32.8443C118.168 32.5201 118.492 32.088 118.709 31.6559C118.817 31.2237 118.817 30.7915 118.492 30.2513C118.168 29.8192 117.844 29.495 117.412 29.387C116.98 29.279 116.548 29.387 116.116 29.6031C115.683 29.8191 115.467 30.1433 115.359 30.5755C115.251 31.0076 115.251 31.4398 115.359 32.088L115.575 33.6006C115.683 34.4649 115.575 35.1131 115.359 35.6533C115.143 36.1935 114.711 36.7337 114.063 37.0579C113.307 37.5981 112.442 37.7061 111.686 37.49C110.714 37.49 110.065 36.9498 109.525 36.1935Z" fill="#21306F"/>
<path d="M112.55 41.0553L121.625 36.7337L120.545 34.3569L121.733 33.8167L124.542 39.8669L123.354 40.4071L122.273 38.0302L113.198 42.3518L112.55 41.0553Z" fill="#21306F"/>
<path d="M114.495 45.3768L125.299 41.8115L127.028 46.9974L125.839 47.4296L124.543 43.6482L120.978 44.8366L122.274 48.618L121.086 49.0502L119.789 45.2688L116.224 46.4572L117.52 50.2386L116.332 50.6708L114.495 45.3768Z" fill="#21306F"/>
<path d="M117.844 60.7186L119.897 59.9623L119.465 56.1809L117.304 55.8568L117.088 54.3442L128.756 56.397L128.864 57.5854L117.952 62.2312L117.844 60.7186ZM120.761 56.2889L121.085 59.4221L126.812 57.1533L120.761 56.2889Z" fill="#21306F"/>
<path d="M117.952 63.8517L128 63.9598V61.3668H129.296L129.188 67.9572H127.892V65.3643L117.844 65.2562L117.952 63.8517Z" fill="#21306F"/>
<path d="M117.844 68.7136L129.08 70.1181L128.432 75.5201L127.136 75.3041L127.676 71.3066L124.002 70.8744L123.462 74.8719L122.166 74.6558L122.706 70.6583L118.925 70.2262L118.384 74.2237L117.088 74.0076L117.844 68.7136Z" fill="#21306F"/>
<path d="M116.872 75.5201L127.892 78.3292L127.568 79.7337L117.844 77.2488L116.98 80.8141L115.684 80.49L116.872 75.5201Z" fill="#21306F"/>
<path d="M115.143 81.7865L125.839 85.5679L125.407 86.8644L114.711 83.083L115.143 81.7865Z" fill="#21306F"/>
<path d="M113.954 84.8115L124.218 89.6733L121.949 94.5351L120.761 93.9949L122.489 90.4296L119.14 88.809L117.411 92.3743L116.223 91.8341L117.952 88.2688L114.494 86.6482L112.766 90.2135L111.577 89.6733L113.954 84.8115Z" fill="#21306F"/>
<path d="M107.256 96.5879L108.12 95.1834L112.226 95.3995L112.442 95.1834L113.09 94.103L110.173 92.1583L110.929 90.9698L120.437 97.2362L118.924 99.505C118.276 100.585 117.412 101.126 116.439 101.342C115.467 101.558 114.495 101.342 113.522 100.693C112.766 100.153 112.226 99.6131 111.902 98.9648C111.577 98.3166 111.469 97.5603 111.686 96.804L107.256 96.5879ZM114.17 94.8593L113.414 95.9397C112.982 96.5879 112.874 97.2362 113.09 97.8844C113.306 98.5327 113.63 99.0729 114.387 99.505C115.035 99.9372 115.683 100.153 116.331 100.045C116.979 99.9372 117.52 99.6131 117.952 98.9648L118.708 97.8844L114.17 94.8593Z" fill="#21306F"/>
<path d="M80.786 114.847C82.0825 114.415 83.271 114.631 84.2433 115.387C85.2157 116.143 85.9719 117.44 86.6202 119.276C87.1604 121.113 87.2684 122.626 86.9443 123.814C86.6202 125.002 85.7559 125.759 84.4594 126.191C83.379 126.515 82.4066 126.515 81.6503 126.083C80.894 125.651 80.2458 124.786 79.7056 123.598L81.1101 123.166C81.7584 124.786 82.7307 125.435 84.0272 125.002C85.7559 124.462 86.08 122.734 85.1076 119.817C84.1353 116.899 82.8388 115.711 81.2182 116.251C79.9217 116.683 79.4895 117.764 79.9217 119.492L78.5172 119.925C78.193 118.628 78.1931 117.656 78.6252 116.791C79.0574 115.927 79.7056 115.171 80.786 114.847Z" fill="#21306F"/>
<path d="M76.0327 116.467L77.9774 127.704L76.5729 127.92L74.9523 118.088L71.387 118.736L71.1709 117.44L76.0327 116.467Z" fill="#21306F"/>
<path d="M63.7161 117.656L64.3643 119.709L68.2537 119.6L68.7939 117.548H70.3065L67.1733 129H65.9849L62.3115 117.764L63.7161 117.656ZM67.9296 120.897L64.7965 121.005L66.5251 126.947L67.9296 120.897Z" fill="#21306F"/>
<path d="M61.2308 117.44L60.3665 128.784L58.9619 128.676L59.8263 117.332L61.2308 117.44Z" fill="#21306F"/>
<path d="M51.3991 116.035L53.0198 116.359L54.4243 120.141L54.7484 120.249L56.0449 120.465L56.6931 117.008L58.0977 117.224L56.0449 128.352L53.4519 127.812C52.2635 127.595 51.2911 127.055 50.7509 126.191C50.2107 125.327 49.9947 124.354 50.2107 123.166C50.4268 122.301 50.7509 121.545 51.1831 121.005C51.7233 120.465 52.3715 120.141 53.1278 120.033L51.3991 116.035ZM55.7208 121.653L54.4243 121.437C53.668 121.329 53.0198 121.437 52.4796 121.869C51.9393 122.302 51.6152 122.842 51.5072 123.598C51.3992 124.354 51.3992 125.003 51.8313 125.651C52.2635 126.299 52.6957 126.515 53.4519 126.731L54.7484 126.947L55.7208 121.653Z" fill="#21306F"/>
<path d="M50.427 115.711L46.8617 126.515L41.6758 124.786L42.108 123.598L45.8894 124.894L47.0778 121.329L43.2964 120.033L43.7286 118.844L47.51 120.141L48.6984 116.575L44.917 115.279L45.3492 114.09L50.427 115.711Z" fill="#21306F"/>
<path d="M34.3284 114.847C33.7882 114.415 33.4641 113.982 33.356 113.334C33.248 112.686 33.356 112.038 33.7882 111.389C34.3284 110.525 34.9766 109.985 35.7329 109.877C36.5972 109.769 37.4615 109.877 38.4339 110.525L41.0269 112.038L35.4088 121.869L32.7078 120.357C31.8435 119.817 31.1952 119.168 30.9791 118.412C30.763 117.656 30.8711 116.899 31.3033 116.143C31.9515 114.847 32.9239 114.523 34.3284 114.847ZM33.4641 119.384L34.7605 120.141L36.5972 116.899L35.1927 116.143C34.6525 115.819 34.1123 115.711 33.6801 115.819C33.248 115.927 32.8158 116.251 32.4917 116.791C31.9515 117.764 32.2756 118.628 33.4641 119.384ZM37.8937 111.713C37.2455 111.389 36.7053 111.173 36.1651 111.281C35.6249 111.389 35.3008 111.713 34.9766 112.254C34.6525 112.794 34.6525 113.226 34.7605 113.766C34.8686 114.198 35.1927 114.631 35.7329 114.955L37.2455 115.819L39.1902 112.47L37.8937 111.713Z" fill="#21306F"/>
<path d="M30.0071 104.691L29.1428 106.636L32.1679 109.013L33.8966 107.716L35.085 108.688L25.3614 115.495L24.4971 114.739L28.8187 103.719L30.0071 104.691ZM31.0875 109.769L28.6026 107.824L26.1177 113.442L31.0875 109.769Z" fill="#21306F"/>
<path d="M27.7382 102.422L20.6076 109.445L22.4443 111.281L21.4719 112.254L16.8262 107.5L17.7986 106.528L19.6352 108.364L26.7659 101.342L27.7382 102.422Z" fill="#21306F"/>
<path d="M24.389 98.8568L15.6378 106.095L14.7734 105.015L23.5247 97.7764L24.389 98.8568Z" fill="#21306F"/>
<path d="M20.9321 93.8869C21.5803 94.8592 21.7964 95.7236 21.5803 96.5879C21.3642 97.4522 20.824 98.2085 19.8517 98.8567L18.9873 97.6683C19.6356 97.2361 19.9597 96.804 20.1758 96.2638C20.2838 95.7236 20.1758 95.1834 19.8517 94.6432C19.5276 94.211 19.2034 93.8869 18.7713 93.8869C18.3391 93.7788 17.9069 93.8869 17.4748 94.211C16.7185 94.7512 16.3944 95.6155 16.6105 96.6959L16.8265 98.2085C17.0426 99.721 16.6105 100.91 15.422 101.666C14.6657 102.206 13.9095 102.314 13.1532 102.098C12.3969 101.882 11.7487 101.45 11.2085 100.693C10.6683 99.8291 10.4522 98.9648 10.5602 98.2085C10.6683 97.4522 11.3165 96.804 12.1808 96.1557L13.0451 97.3442C12.5049 97.6683 12.1808 98.1005 11.9647 98.5326C11.8567 98.9648 11.9647 99.3969 12.2889 99.9371C12.613 100.369 12.9371 100.585 13.3693 100.693C13.8014 100.801 14.2336 100.693 14.6657 100.369C14.9898 100.153 15.314 99.8291 15.422 99.3969C15.5301 98.9648 15.5301 98.5326 15.422 97.8844L15.2059 96.4799C15.0979 95.6155 15.0979 94.9673 15.314 94.4271C15.5301 93.8869 15.9622 93.3467 16.6105 92.9145C17.3668 92.3743 18.123 92.2663 18.9873 92.3743C19.6356 92.5904 20.3919 93.1306 20.9321 93.8869Z" fill="#21306F"/>
<path d="M17.6907 89.1332L8.72336 93.6709L9.9118 96.0477L8.72336 96.696L5.69824 90.7538L6.88669 90.1055L8.07514 92.4824L17.0425 87.9447L17.6907 89.1332Z" fill="#21306F"/>
<path d="M15.6381 84.7035L4.94213 88.4849L3.10547 83.407L4.29392 82.9749L5.59038 86.7563L9.04768 85.4598L7.75118 81.6784L8.93963 81.2462L10.2361 85.0276L13.8014 83.7311L12.5049 79.9497L13.6934 79.5176L15.6381 84.7035Z" fill="#21306F"/>
<path d="M11.8568 69.4699L9.91201 70.3342L10.4522 74.1156L12.613 74.3317L12.8291 75.8442L1.16075 74.1156L1.05273 72.9271L11.8568 67.9573V69.4699ZM9.15575 74.0075L8.72356 70.8744L2.99744 73.2513L9.15575 74.0075Z" fill="#21306F"/>
<path d="M11.7485 66.3367L1.70076 66.5528L1.80881 69.1458H0.512344L0.404297 62.5553H1.70076L1.80881 65.1483L11.8566 64.9322L11.7485 66.3367Z" fill="#21306F"/>
<path d="M11.7489 61.5829L0.512695 60.3944L1.0529 54.9924L2.34936 55.1005L1.9172 59.098L5.59057 59.4221L6.02272 55.4246L7.31921 55.5326L6.88706 59.5301L10.6685 59.9623L11.1006 55.9648L12.3971 56.0728L11.7489 61.5829Z" fill="#21306F"/>
<path d="M12.5045 54.6684L1.48438 52.0754L1.80848 50.6709L11.5321 52.9397L12.3964 49.3744L13.6929 49.6985L12.5045 54.6684Z" fill="#21306F"/>
<path d="M14.1253 48.402L3.32129 44.8366L3.75348 43.4321L14.5575 46.9974L14.1253 48.402Z" fill="#21306F"/>
<path d="M15.0975 45.3769L4.72559 40.8392L6.88639 35.8694L8.07484 36.4096L6.45424 40.0829L9.80346 41.5955L11.4241 37.9221L12.6125 38.4623L10.9919 42.1357L14.4492 43.6483L16.0698 39.9749L17.2583 40.5151L15.0975 45.3769Z" fill="#21306F"/>
<path d="M21.5803 33.3844L20.716 34.789L16.6105 34.6809L16.3944 34.897L15.7461 35.9774L18.7713 37.8141L18.015 39.0025L8.39941 33.0603L9.80392 30.7915C10.4522 29.7111 11.3165 29.0629 12.2889 28.8468C13.2612 28.6307 14.2336 28.8468 15.314 29.495C16.0703 29.9272 16.6105 30.5754 16.9346 31.2236C17.2587 31.8719 17.3668 32.6282 17.1507 33.3844H21.5803ZM14.6657 35.3292L15.314 34.2488C15.7461 33.6005 15.8542 32.9523 15.6381 32.304C15.422 31.6558 14.9899 31.1156 14.3416 30.7915C13.6934 30.3593 13.0452 30.2513 12.3969 30.3593C11.7487 30.4674 11.2084 30.7915 10.8843 31.5478L10.2361 32.6282L14.6657 35.3292Z" fill="#21306F"/>
</svg>
