<svg width="21" height="26" viewBox="0 0 21 26" fill="none" xmlns="http://www.w3.org/2000/svg">
<path d="M17.4987 2.87088C13.6708 -0.956961 7.44009 -0.956961 3.61225 2.87088C2.01964 4.46349 1.01378 6.57579 0.784672 8.8222C0.55556 11.063 1.11437 13.3374 2.35493 15.2206C2.36051 15.2317 2.3661 15.2373 2.37169 15.2485L10.0106 25.7262C10.1391 25.8994 10.3403 26 10.5527 26C10.765 26 10.9662 25.8994 11.0947 25.7262L18.7336 15.2485C18.7392 15.2373 18.7448 15.2317 18.7504 15.2206C19.9909 13.3374 20.5498 11.0686 20.3206 8.8222C20.0971 6.58138 19.0913 4.46349 17.4987 2.87088ZM17.6439 14.4718L10.5527 24.1895L3.46137 14.4718C2.39404 12.8512 1.91905 10.8898 2.11464 8.9619C2.31022 7.02284 3.17638 5.20112 4.55663 3.82645C7.86479 0.518295 13.2405 0.518295 16.5487 3.82645C17.9233 5.20112 18.7895 7.02842 18.9907 8.9619C19.1863 10.8898 18.7057 12.8456 17.6439 14.4718Z" fill="#CBAFA7"/>
<path d="M10.5529 5.04492C8.30094 5.04492 6.47363 6.87782 6.47363 9.12423C6.47363 11.3706 8.30653 13.2035 10.5529 13.2035C12.7994 13.2035 14.6322 11.3706 14.6322 9.12423C14.6322 6.87782 12.8049 5.04492 10.5529 5.04492ZM10.5529 11.8624C9.04416 11.8624 7.81478 10.633 7.81478 9.12423C7.81478 7.61544 9.04416 6.38606 10.5529 6.38606C12.0617 6.38606 13.2911 7.61544 13.2911 9.12423C13.2911 10.633 12.0617 11.8624 10.5529 11.8624Z" fill="#CBAFA7"/>
</svg>
