<svg width="25" height="25" viewBox="0 0 25 25" fill="none" xmlns="http://www.w3.org/2000/svg">
<path d="M4.85355 0.646447C4.65829 0.451184 4.34171 0.451184 4.14645 0.646447L0.964466 3.82843C0.769204 4.02369 0.769204 4.34027 0.964466 4.53553C1.15973 4.7308 1.47631 4.7308 1.67157 4.53553L4.5 1.70711L7.32843 4.53553C7.52369 4.7308 7.84027 4.7308 8.03553 4.53553C8.2308 4.34027 8.2308 4.02369 8.03553 3.82843L4.85355 0.646447ZM4 1L4 21H5L5 1H4Z" fill="#CBAFA7"/>
<path d="M24.3536 21.3536C24.5488 21.1583 24.5488 20.8417 24.3536 20.6464L21.1716 17.4645C20.9763 17.2692 20.6597 17.2692 20.4645 17.4645C20.2692 17.6597 20.2692 17.9763 20.4645 18.1716L23.2929 21L20.4645 23.8284C20.2692 24.0237 20.2692 24.3403 20.4645 24.5355C20.6597 24.7308 20.9763 24.7308 21.1716 24.5355L24.3536 21.3536ZM24 20.5L4 20.5L4 21.5L24 21.5L24 20.5Z" fill="#CBAFA7"/>
</svg>
