<svg width="63" height="63" viewBox="0 0 63 63" fill="none" xmlns="http://www.w3.org/2000/svg">
<path d="M62.8505 28.4113C62.9166 29.0905 62.9611 29.776 62.9834 30.4671L62.4836 30.4832C62.4945 30.8208 62.5 31.1597 62.5 31.5C62.5 31.8403 62.4945 32.1792 62.4836 32.5168L62.9834 32.5329C62.9611 33.224 62.9166 33.9095 62.8505 34.5887L62.3528 34.5403C62.2869 35.2177 62.1992 35.8887 62.0904 36.5526L62.5838 36.6335C62.472 37.3153 62.3384 37.9898 62.1836 38.6562L61.6966 38.543C61.5429 39.2044 61.3681 39.8577 61.1729 40.5021L61.6514 40.6471C61.4514 41.3072 61.2303 41.9582 60.9889 42.5992L60.521 42.423C60.2819 43.0579 60.0226 43.6829 59.7438 44.2971L60.1991 44.5038C59.9145 45.131 59.6099 45.7472 59.2861 46.3516L58.8454 46.1156C58.5254 46.7129 58.1865 47.2985 57.8293 47.8717L58.2537 48.1361C57.8897 48.7202 57.5071 49.2915 57.1068 49.8492L56.7006 49.5576C56.3058 50.1076 55.8935 50.6441 55.4644 51.1663L55.8508 51.4837C55.4142 52.015 54.9607 52.5318 54.4909 53.0332L54.126 52.6913C53.6635 53.1849 53.1849 53.6635 52.6913 54.126L53.0332 54.4909C52.5318 54.9607 52.015 55.4142 51.4837 55.8508L51.1663 55.4644C50.6441 55.8935 50.1076 56.3058 49.5576 56.7006L49.8492 57.1068C49.2915 57.5071 48.7202 57.8897 48.1361 58.2537L47.8717 57.8293C47.2985 58.1865 46.7129 58.5254 46.1156 58.8454L46.3516 59.2861C45.7472 59.6099 45.131 59.9145 44.5038 60.1991L44.2971 59.7438C43.6829 60.0226 43.0579 60.2819 42.423 60.521L42.5992 60.9889C41.9582 61.2303 41.3072 61.4514 40.6471 61.6514L40.5021 61.1729C39.8577 61.3681 39.2044 61.5429 38.543 61.6966L38.6562 62.1836C37.9898 62.3384 37.3153 62.472 36.6335 62.5838L36.5526 62.0904C35.8887 62.1992 35.2177 62.2869 34.5403 62.3528L34.5887 62.8505C33.9095 62.9166 33.224 62.9611 32.5329 62.9834L32.5168 62.4836C32.1792 62.4945 31.8403 62.5 31.5 62.5C31.1597 62.5 30.8208 62.4945 30.4832 62.4836L30.4671 62.9834C29.776 62.9611 29.0905 62.9166 28.4113 62.8505L28.4597 62.3528C27.7823 62.2869 27.1113 62.1992 26.4474 62.0904L26.3665 62.5838C25.6847 62.472 25.0102 62.3384 24.3438 62.1836L24.457 61.6966C23.7956 61.5429 23.1423 61.3681 22.4979 61.1729L22.3529 61.6514C21.6928 61.4514 21.0418 61.2303 20.4007 60.9889L20.577 60.521C19.9421 60.2819 19.3171 60.0226 18.7029 59.7438L18.4962 60.1991C17.869 59.9145 17.2528 59.6099 16.6484 59.2861L16.8844 58.8454C16.2871 58.5254 15.7015 58.1865 15.1283 57.8293L14.8639 58.2537C14.2798 57.8897 13.7085 57.5071 13.1508 57.1068L13.4424 56.7006C12.8924 56.3058 12.3559 55.8935 11.8337 55.4644L11.5163 55.8508C10.985 55.4142 10.4682 54.9607 9.96684 54.4909L10.3087 54.126C9.81506 53.6635 9.33655 53.1849 8.874 52.6913L8.50914 53.0332C8.03935 52.5318 7.58577 52.015 7.14924 51.4837L7.53557 51.1663C7.1065 50.6441 6.69417 50.1076 6.2994 49.5576L5.89322 49.8492C5.49288 49.2915 5.1103 48.7202 4.74633 48.1361L5.17068 47.8717C4.81353 47.2985 4.47458 46.7129 4.15464 46.1156L3.71388 46.3516C3.39014 45.7472 3.08554 45.131 2.80089 44.5038L3.2562 44.2971C2.97743 43.6829 2.71811 43.0579 2.47904 42.423L2.01112 42.5993C1.76972 41.9582 1.54862 41.3072 1.34862 40.6471L1.82714 40.5021C1.6319 39.8577 1.45709 39.2044 1.30344 38.543L0.816411 38.6562C0.661615 37.9898 0.527965 37.3153 0.416209 36.6335L0.909625 36.5526C0.800814 35.8887 0.713086 35.2177 0.647158 34.5403L0.149509 34.5887C0.0834101 33.9095 0.0388807 33.224 0.0166151 32.5329L0.516356 32.5168C0.50548 32.1792 0.5 31.8403 0.5 31.5C0.5 31.1597 0.50548 30.8208 0.516356 30.4832L0.0166149 30.4671C0.0388806 29.776 0.0834099 29.0905 0.149509 28.4113L0.647158 28.4597C0.713086 27.7823 0.800814 27.1113 0.909625 26.4474L0.416209 26.3665C0.527965 25.6847 0.661615 25.0102 0.816411 24.3438L1.30344 24.457C1.45709 23.7956 1.6319 23.1423 1.82714 22.4979L1.34862 22.3529C1.54863 21.6928 1.76972 21.0418 2.01112 20.4007L2.47904 20.577C2.71811 19.9421 2.97743 19.3171 3.2562 18.7029L2.80089 18.4962C3.08554 17.869 3.39014 17.2528 3.71388 16.6484L4.15464 16.8844C4.47458 16.2871 4.81353 15.7015 5.17068 15.1283L4.74633 14.8639C5.1103 14.2798 5.49288 13.7085 5.89322 13.1508L6.2994 13.4424C6.69417 12.8924 7.10649 12.3559 7.53556 11.8337L7.14924 11.5163C7.58577 10.985 8.03935 10.4682 8.50914 9.96684L8.874 10.3087C9.33654 9.81506 9.81506 9.33655 10.3087 8.874L9.96684 8.50914C10.4682 8.03935 10.985 7.58577 11.5163 7.14924L11.8337 7.53557C12.3559 7.1065 12.8924 6.69417 13.4424 6.2994L13.1508 5.89322C13.7085 5.49288 14.2798 5.1103 14.8639 4.74633L15.1283 5.17068C15.7015 4.81353 16.2871 4.47458 16.8844 4.15464L16.6484 3.71388C17.2528 3.39014 17.869 3.08554 18.4962 2.80089L18.7029 3.2562C19.3171 2.97743 19.9421 2.71811 20.577 2.47904L20.4008 2.01112C21.0418 1.76972 21.6928 1.54862 22.3529 1.34862L22.4979 1.82714C23.1423 1.6319 23.7956 1.45709 24.457 1.30344L24.3438 0.816411C25.0102 0.661615 25.6847 0.527965 26.3665 0.416209L26.4474 0.909625C27.1113 0.800814 27.7823 0.713086 28.4597 0.647158L28.4113 0.149509C29.0905 0.0834101 29.776 0.0388807 30.4671 0.016615L30.4832 0.516356C30.8208 0.50548 31.1597 0.5 31.5 0.5C31.8403 0.5 32.1792 0.50548 32.5168 0.516356L32.5329 0.0166149C33.224 0.0388805 33.9095 0.0834098 34.5887 0.149509L34.5403 0.647158C35.2177 0.713086 35.8887 0.800814 36.5526 0.909625L36.6335 0.416209C37.3153 0.527965 37.9898 0.661615 38.6562 0.816411L38.543 1.30344C39.2044 1.45709 39.8577 1.6319 40.5021 1.82714L40.6471 1.34862C41.3072 1.54863 41.9582 1.76972 42.5993 2.01112L42.423 2.47904C43.0579 2.71811 43.6829 2.97743 44.2971 3.2562L44.5038 2.80089C45.131 3.08554 45.7472 3.39014 46.3516 3.71388L46.1156 4.15464C46.7129 4.47458 47.2985 4.81353 47.8717 5.17068L48.1361 4.74633C48.7202 5.1103 49.2915 5.49288 49.8492 5.89322L49.5576 6.2994C50.1076 6.69417 50.6441 7.10649 51.1663 7.53556L51.4837 7.14924C52.015 7.58577 52.5318 8.03935 53.0332 8.50914L52.6913 8.874C53.1849 9.33654 53.6635 9.81506 54.126 10.3087L54.4909 9.96684C54.9607 10.4682 55.4142 10.985 55.8508 11.5163L55.4644 11.8337C55.8935 12.3559 56.3058 12.8924 56.7006 13.4424L57.1068 13.1508C57.5071 13.7085 57.8897 14.2798 58.2537 14.8639L57.8293 15.1283C58.1865 15.7015 58.5254 16.2871 58.8454 16.8844L59.2861 16.6484C59.6099 17.2528 59.9145 17.869 60.1991 18.4962L59.7438 18.7029C60.0226 19.3171 60.2819 19.9421 60.521 20.577L60.9889 20.4008C61.2303 21.0418 61.4514 21.6928 61.6514 22.3529L61.1729 22.4979C61.3681 23.1423 61.5429 23.7956 61.6966 24.457L62.1836 24.3438C62.3384 25.0102 62.472 25.6847 62.5838 26.3665L62.0904 26.4474C62.1992 27.1113 62.2869 27.7823 62.3528 28.4597L62.8505 28.4113Z" stroke="#CBAFA7" stroke-dasharray="2 2"/>
</svg>
