<svg width="36" height="26" viewBox="0 0 36 26" fill="none" xmlns="http://www.w3.org/2000/svg">
<path d="M1 15C1 15 5.01943 18 8.52857 18C12.0377 18 14.4909 15 18 15C21.5091 15 23.9623 18 27.4714 18C30.9806 18 35 15 35 15" stroke="#CBAFA7" stroke-linecap="round"/>
<path d="M1 1C1 1 5.01943 4 8.52857 4C12.0377 4 14.4909 1 18 1C21.5091 1 23.9623 4 27.4714 4C30.9806 4 35 1 35 1" stroke="#CBAFA7" stroke-linecap="round"/>
<path d="M1 11C1 11 5.01943 8 8.52857 8C12.0377 8 14.4909 11 18 11C21.5091 11 23.9623 8 27.4714 8C30.9806 8 35 11 35 11" stroke="#CBAFA7" stroke-linecap="round"/>
<path d="M1 25C1 25 5.01943 22 8.52857 22C12.0377 22 14.4909 25 18 25C21.5091 25 23.9623 22 27.4714 22C30.9806 22 35 25 35 25" stroke="#CBAFA7" stroke-linecap="round"/>
</svg>
