<svg width="20" height="20" viewBox="0 0 20 20" fill="none" xmlns="http://www.w3.org/2000/svg">
<path d="M14.5862 0H5.41382C2.42859 0 0 2.42859 0 5.41382V14.5863C0 17.5714 2.42859 20 5.41382 20H14.5863C17.5714 20 20 17.5714 20 14.5863V5.41382C20 2.42859 17.5714 0 14.5862 0V0ZM10 15.4686C6.98456 15.4686 4.5314 13.0154 4.5314 10C4.5314 6.98456 6.98456 4.5314 10 4.5314C13.0154 4.5314 15.4686 6.98456 15.4686 10C15.4686 13.0154 13.0154 15.4686 10 15.4686ZM15.5994 5.82108C14.7083 5.82108 13.9835 5.09628 13.9835 4.20517C13.9835 3.31406 14.7083 2.58911 15.5994 2.58911C16.4905 2.58911 17.2154 3.31406 17.2154 4.20517C17.2154 5.09628 16.4905 5.82108 15.5994 5.82108Z" fill="url(#paint0_linear)"/>
<path d="M10.0002 5.70337C7.63144 5.70337 5.7041 7.63055 5.7041 9.99948C5.7041 12.3683 7.63144 14.2956 10.0002 14.2956C12.3691 14.2956 14.2963 12.3683 14.2963 9.99948C14.2963 7.63055 12.3691 5.70337 10.0002 5.70337Z" fill="url(#paint1_linear)"/>
<path d="M15.6006 3.76245C15.3562 3.76245 15.1572 3.96143 15.1572 4.20587C15.1572 4.45032 15.3562 4.64929 15.6006 4.64929C15.8452 4.64929 16.0442 4.45047 16.0442 4.20587C16.0442 3.96127 15.8452 3.76245 15.6006 3.76245Z" fill="url(#paint2_linear)"/>
<defs>
<linearGradient id="paint0_linear" x1="1.47998e-07" y1="9.3333" x2="20" y2="9.3333" gradientUnits="userSpaceOnUse">
<stop stop-color="#DFC29C"/>
<stop offset="1" stop-color="#D1B2AE"/>
</linearGradient>
<linearGradient id="paint1_linear" x1="5.7041" y1="9.71306" x2="14.2963" y2="9.71306" gradientUnits="userSpaceOnUse">
<stop stop-color="#DFC29C"/>
<stop offset="1" stop-color="#D1B2AE"/>
</linearGradient>
<linearGradient id="paint2_linear" x1="15.1572" y1="4.17631" x2="16.0442" y2="4.17631" gradientUnits="userSpaceOnUse">
<stop stop-color="#DFC29C"/>
<stop offset="1" stop-color="#D1B2AE"/>
</linearGradient>
</defs>
</svg>
