<svg width="50" height="50" viewBox="0 0 50 50" fill="none" xmlns="http://www.w3.org/2000/svg">
<path d="M49.981 25.9829C49.9936 25.6569 50 25.3292 50 25C50 24.6708 49.9936 24.3431 49.981 24.0171L48.9818 24.0557C48.9939 24.3689 49 24.6837 49 25C49 25.3163 48.9939 25.6311 48.9818 25.9443L49.981 25.9829Z" fill="#D8B9A6"/>
<path d="M49.8289 22.0598C49.7523 21.4054 49.6503 20.7588 49.5241 20.121L48.5432 20.315C48.6643 20.9272 48.7621 21.5479 48.8357 22.1761L49.8289 22.0598Z" fill="#D8B9A6"/>
<path d="M49.0672 18.2112C48.8891 17.5785 48.6867 16.956 48.4611 16.3447L47.523 16.6909C47.7395 17.2776 47.9337 17.875 48.1046 18.4822L49.0672 18.2112Z" fill="#D8B9A6"/>
<path d="M46.8164 12.7824C47.1359 13.3518 47.4338 13.935 47.709 14.5308L46.8011 14.9501C46.537 14.3782 46.2511 13.8184 45.9443 13.2718L46.8164 12.7824Z" fill="#D8B9A6"/>
<path d="M45.7891 11.1096C45.4245 10.565 45.039 10.0354 44.6339 9.52217L43.8489 10.1418C44.238 10.6346 44.6081 11.143 44.9582 11.6659L45.7891 11.1096Z" fill="#D8B9A6"/>
<path d="M43.3582 8.02998C42.9137 7.54937 42.4506 7.08626 41.97 6.64178L41.291 7.37594C41.7525 7.80275 42.1973 8.24745 42.6241 8.70895L43.3582 8.02998Z" fill="#D8B9A6"/>
<path d="M40.4778 5.36614C39.9646 4.96098 39.435 4.5755 38.8904 4.21086L38.3341 5.04183C38.857 5.39191 39.3654 5.76202 39.8582 6.15105L40.4778 5.36614Z" fill="#D8B9A6"/>
<path d="M37.2176 3.18363C36.6482 2.86408 36.065 2.56617 35.4692 2.29102L35.0499 3.19889C35.6218 3.46298 36.1816 3.74893 36.7282 4.05568L37.2176 3.18363Z" fill="#D8B9A6"/>
<path d="M33.6553 1.53886C33.044 1.31326 32.4215 1.11087 31.7888 0.932764L31.5178 1.89535C32.125 2.06628 32.7224 2.26051 33.3091 2.47701L33.6553 1.53886Z" fill="#D8B9A6"/>
<path d="M29.879 0.475851C29.2412 0.349659 28.5946 0.247734 27.9402 0.171076L27.8239 1.16428C28.4521 1.23788 29.0728 1.33572 29.685 1.45684L29.879 0.475851Z" fill="#D8B9A6"/>
<path d="M25.9829 0.018969C25.6569 0.00636174 25.3292 0 25 0C24.6708 0 24.3431 0.00636182 24.0171 0.0189692L24.0557 1.01822C24.3689 1.00611 24.6837 1 25 1C25.3163 1 25.6311 1.00611 25.9443 1.01822L25.9829 0.018969Z" fill="#D8B9A6"/>
<path d="M22.0598 0.171076C21.4054 0.247734 20.7588 0.34966 20.121 0.475851L20.315 1.45684C20.9272 1.33572 21.5479 1.23788 22.1761 1.16428L22.0598 0.171076Z" fill="#D8B9A6"/>
<path d="M18.2112 0.932764C17.5785 1.11087 16.956 1.31326 16.3447 1.53886L16.6909 2.47701C17.2776 2.26051 17.875 2.06628 18.4822 1.89535L18.2112 0.932764Z" fill="#D8B9A6"/>
<path d="M14.5308 2.29102C13.935 2.56617 13.3518 2.86408 12.7824 3.18363L13.2718 4.05568C13.8184 3.74893 14.3782 3.46298 14.9501 3.19889L14.5308 2.29102Z" fill="#D8B9A6"/>
<path d="M11.1096 4.21086C10.565 4.5755 10.0354 4.96098 9.52217 5.36614L10.1418 6.15105C10.6346 5.76202 11.143 5.39191 11.6659 5.04183L11.1096 4.21086Z" fill="#D8B9A6"/>
<path d="M8.02998 6.64178C7.54937 7.08626 7.08626 7.54937 6.64178 8.02998L7.37594 8.70895C7.80275 8.24745 8.24745 7.80275 8.70895 7.37594L8.02998 6.64178Z" fill="#D8B9A6"/>
<path d="M5.36614 9.52217C4.96098 10.0354 4.5755 10.565 4.21086 11.1096L5.04183 11.6659C5.39191 11.143 5.76202 10.6346 6.15105 10.1418L5.36614 9.52217Z" fill="#D8B9A6"/>
<path d="M3.18363 12.7824C2.86408 13.3518 2.56617 13.935 2.29102 14.5308L3.19889 14.9501C3.46298 14.3782 3.74893 13.8184 4.05568 13.2718L3.18363 12.7824Z" fill="#D8B9A6"/>
<path d="M1.53886 16.3447C1.31326 16.956 1.11087 17.5785 0.932764 18.2112L1.89535 18.4822C2.06628 17.875 2.26051 17.2776 2.47701 16.6909L1.53886 16.3447Z" fill="#D8B9A6"/>
<path d="M0.475851 20.121C0.349659 20.7588 0.247733 21.4054 0.171076 22.0598L1.16428 22.1761C1.23788 21.5479 1.33572 20.9272 1.45684 20.315L0.475851 20.121Z" fill="#D8B9A6"/>
<path d="M0 25C0 24.6708 0.00636174 24.3431 0.018969 24.0171L1.01822 24.0557C1.00611 24.3689 1 24.6837 1 25C1 25.3163 1.00611 25.6311 1.01822 25.9443L0.0189692 25.9829C0.00636182 25.6569 0 25.3292 0 25Z" fill="#D8B9A6"/>
<path d="M0.171076 27.9402C0.247734 28.5946 0.34966 29.2412 0.475851 29.879L1.45684 29.685C1.33572 29.0728 1.23788 28.4521 1.16428 27.8239L0.171076 27.9402Z" fill="#D8B9A6"/>
<path d="M0.932764 31.7888C1.11087 32.4215 1.31326 33.044 1.53886 33.6553L2.47701 33.3091C2.26051 32.7224 2.06628 32.125 1.89535 31.5178L0.932764 31.7888Z" fill="#D8B9A6"/>
<path d="M2.29102 35.4692C2.56617 36.065 2.86408 36.6482 3.18363 37.2176L4.05568 36.7282C3.74893 36.1816 3.46298 35.6218 3.19889 35.0499L2.29102 35.4692Z" fill="#D8B9A6"/>
<path d="M4.21086 38.8904C4.5755 39.435 4.96097 39.9646 5.36614 40.4778L6.15105 39.8582C5.76202 39.3654 5.39191 38.857 5.04183 38.3341L4.21086 38.8904Z" fill="#D8B9A6"/>
<path d="M6.64178 41.97C7.08626 42.4506 7.54937 42.9137 8.02998 43.3582L8.70895 42.6241C8.24745 42.1973 7.80275 41.7525 7.37594 41.291L6.64178 41.97Z" fill="#D8B9A6"/>
<path d="M9.52217 44.6339C10.0354 45.039 10.565 45.4245 11.1096 45.7891L11.6659 44.9582C11.143 44.6081 10.6346 44.238 10.1418 43.8489L9.52217 44.6339Z" fill="#D8B9A6"/>
<path d="M12.7824 46.8164C13.3518 47.1359 13.935 47.4338 14.5308 47.709L14.9501 46.8011C14.3782 46.537 13.8184 46.2511 13.2718 45.9443L12.7824 46.8164Z" fill="#D8B9A6"/>
<path d="M16.3447 48.4611C16.956 48.6867 17.5785 48.8891 18.2112 49.0672L18.4822 48.1046C17.875 47.9337 17.2776 47.7395 16.6909 47.523L16.3447 48.4611Z" fill="#D8B9A6"/>
<path d="M22.0598 49.8289C21.4054 49.7523 20.7588 49.6503 20.121 49.5242L20.315 48.5432C20.9272 48.6643 21.5479 48.7621 22.1761 48.8357L22.0598 49.8289Z" fill="#D8B9A6"/>
<path d="M24.0171 49.981C24.3431 49.9936 24.6708 50 25 50C25.3292 50 25.6569 49.9936 25.9829 49.981L25.9443 48.9818C25.6311 48.9939 25.3163 49 25 49C24.6837 49 24.3689 48.9939 24.0557 48.9818L24.0171 49.981Z" fill="#D8B9A6"/>
<path d="M27.9402 49.8289C28.5946 49.7523 29.2412 49.6503 29.879 49.5241L29.685 48.5432C29.0728 48.6643 28.4521 48.7621 27.8239 48.8357L27.9402 49.8289Z" fill="#D8B9A6"/>
<path d="M31.7888 49.0672C32.4215 48.8891 33.044 48.6867 33.6553 48.4611L33.3091 47.523C32.7224 47.7395 32.125 47.9337 31.5178 48.1046L31.7888 49.0672Z" fill="#D8B9A6"/>
<path d="M35.4692 47.709C36.065 47.4338 36.6482 47.1359 37.2176 46.8164L36.7282 45.9443C36.1816 46.2511 35.6218 46.537 35.0499 46.8011L35.4692 47.709Z" fill="#D8B9A6"/>
<path d="M38.8904 45.7891C39.435 45.4245 39.9646 45.039 40.4778 44.6339L39.8582 43.8489C39.3654 44.238 38.857 44.6081 38.3341 44.9582L38.8904 45.7891Z" fill="#D8B9A6"/>
<path d="M41.97 43.3582C42.4506 42.9137 42.9137 42.4506 43.3582 41.97L42.6241 41.291C42.1973 41.7525 41.7525 42.1973 41.291 42.6241L41.97 43.3582Z" fill="#D8B9A6"/>
<path d="M44.6339 40.4778C45.039 39.9646 45.4245 39.435 45.7891 38.8904L44.9582 38.3341C44.6081 38.857 44.238 39.3654 43.8489 39.8582L44.6339 40.4778Z" fill="#D8B9A6"/>
<path d="M46.8164 37.2176C47.1359 36.6482 47.4338 36.065 47.709 35.4692L46.8011 35.0499C46.537 35.6218 46.2511 36.1816 45.9443 36.7282L46.8164 37.2176Z" fill="#D8B9A6"/>
<path d="M48.4611 33.6553C48.6867 33.044 48.8891 32.4215 49.0672 31.7888L48.1046 31.5178C47.9337 32.125 47.7395 32.7224 47.523 33.3091L48.4611 33.6553Z" fill="#D8B9A6"/>
<path d="M49.8289 27.9402C49.7523 28.5946 49.6503 29.2412 49.5242 29.879L48.5432 29.685C48.6643 29.0728 48.7621 28.4521 48.8357 27.8239L49.8289 27.9402Z" fill="#D8B9A6"/>
<path d="M19.6154 24.4L22.8462 27.7L30.3846 20L32 21.65L22.8462 31L18 26.05L19.6154 24.4Z" fill="#D8B9A6"/>
</svg>
