<svg width="473" height="112" viewBox="0 0 473 112" fill="none" xmlns="http://www.w3.org/2000/svg">
<path d="M56.5586 30.1582C60.3086 34.2598 62.7305 39.0156 63.8242 44.4258C64.9375 49.8164 64.9082 55.1875 63.7363 60.5391C62.4473 66.6133 60.0938 72.043 56.6758 76.8281C53.2578 81.6133 49.0977 85.6465 44.1953 88.9277C39.293 92.2285 33.9512 94.6797 28.1699 96.2812C22.4082 97.8828 16.5391 98.5371 10.5625 98.2441C6.24609 98.1074 3.3457 97.1309 1.86133 95.3145C0.376953 93.498 0.0253906 91.2715 0.806641 88.6348C1.60742 85.998 3.26758 83.3711 5.78711 80.7539C6.91992 79.5625 8.12109 78.459 9.39062 77.4434C10.5234 71.3691 12.2422 64.9238 14.5469 58.1074C16.8711 51.2715 19.7617 44.7188 23.2188 38.4492C26.6953 32.1797 30.709 26.8281 35.2598 22.3945C34.9863 22.3555 34.7031 22.3262 34.4102 22.3066C29.5859 21.9355 24.9473 22.6875 20.4941 24.5625C16.6465 26.2227 13.3164 28.6836 10.5039 31.9453C7.71094 35.207 5.99219 38.9277 5.34766 43.1074C5.07422 45.4707 5.44531 47.7168 6.46094 49.8457C6.69531 50.4316 6.63672 50.9004 6.28516 51.252C5.95312 51.6035 5.54297 51.75 5.05469 51.6914C4.56641 51.6133 4.23438 51.2617 4.05859 50.6367C3.41406 47.2383 3.57031 43.918 4.52734 40.6758C5.48438 37.4336 7.02734 34.4648 9.15625 31.7695C11.2852 29.0742 13.7656 26.8184 16.5977 25.002C19.5469 23.166 22.7207 21.8672 26.1191 21.1055C29.791 20.3047 33.5117 20.1387 37.2812 20.6074C39.7031 18.5371 42.2715 16.877 44.9863 15.627C47.7207 14.3574 50.582 13.5859 53.5703 13.3125C55.7188 13.1758 57.8477 13.3223 59.957 13.752C60.3672 13.8496 60.6797 14.0645 60.8945 14.3965C61.1094 14.709 61.1777 15.0703 61.0996 15.4805C61.002 15.8906 60.7871 16.2031 60.4551 16.418C60.123 16.6328 59.7422 16.7012 59.3125 16.623C55.8164 15.9004 52.4863 15.9688 49.3223 16.8281C46.1777 17.668 43.2285 19.1133 40.4746 21.1641C46.7246 22.5703 52.0859 25.5684 56.5586 30.1582ZM60.9824 59.9824C61.7832 55.9395 61.9297 51.8672 61.4219 47.7656C60.9336 43.6641 59.6641 39.8066 57.6133 36.1934C55.5039 32.6777 52.75 29.7871 49.3516 27.5215C45.9727 25.2559 42.291 23.7031 38.3066 22.8633C34.2637 26.418 30.6699 30.7051 27.5254 35.7246C24.4004 40.7441 21.7441 45.8809 19.5566 51.1348C17.3691 56.3887 15.6797 61.125 14.4883 65.3438C13.5508 68.6641 12.7598 72.0332 12.1152 75.4512C16.373 72.6191 21.0117 70.6953 26.0312 69.6797C29.7617 68.918 33.5215 68.7812 37.3105 69.2695C38.5801 69.4453 39.8301 69.6895 41.0605 70.002C41.4121 70.0996 41.666 70.2949 41.8223 70.5879C41.998 70.8809 42.0469 71.2031 41.9688 71.5547C41.8711 71.9062 41.666 72.1602 41.3535 72.3164C41.0605 72.4922 40.7383 72.5312 40.3867 72.4336C39.2539 72.1016 38.1113 71.8379 36.959 71.6426C32.5254 70.959 28.1309 71.1641 23.7754 72.2578C19.4395 73.3516 15.4258 75.168 11.7344 77.707C11.2266 80.8906 10.9727 84.0938 10.9727 87.3164C10.9336 87.9805 10.6699 88.4199 10.1816 88.6348C9.71289 88.8496 9.24414 88.8398 8.77539 88.6055C8.30664 88.3906 8.0625 87.9414 8.04297 87.2578C8.21875 84.9727 8.53125 82.4922 8.98047 79.8164C8.23828 80.4414 7.52539 81.0957 6.8418 81.7793C5.33789 83.2051 4.05859 84.8164 3.00391 86.6133C1.61719 89.0547 1.20703 91.2324 1.77344 93.1465C2.33984 95.0801 4.08789 96.3496 7.01758 96.9551C10.0059 97.4238 13.0137 97.541 16.041 97.3066C21.3535 96.9551 26.4902 95.8125 31.4512 93.8789C38.9512 91.0078 45.3477 86.623 50.6406 80.7246C55.9336 74.8457 59.3809 67.9316 60.9824 59.9824ZM73.873 52.2188C73.8926 52.2188 73.9023 52.209 73.9023 52.1895C73.9023 52.209 73.8926 52.2188 73.873 52.2188ZM99.1562 50.7539L99.2148 50.6367L99.2441 50.5488C99.3223 50.3926 99.1367 50.2656 98.6875 50.168C98.043 50.0898 97.3398 50.3145 96.5781 50.8418C95.8164 51.3496 95.3281 51.9355 95.1133 52.5996C94.7812 53.5176 95.1621 53.918 96.2559 53.8008C96.7441 53.7031 97.3594 53.4883 98.1016 53.1562C98.4727 52.375 98.8242 51.5742 99.1562 50.7539ZM88.6387 58.1367C87.7598 58.5469 86.8125 58.8691 85.7969 59.1035C83.8633 59.5918 82.2129 59.2793 80.8457 58.166C80.3379 57.6387 80.0449 56.7891 79.9668 55.6172C79.8887 54.6602 80.0156 53.5859 80.3477 52.3945C79.0195 54.4648 77.7793 56.3398 76.627 58.0195C75.6504 59.2695 74.5664 60.3633 73.375 61.3008C72.2031 62.0039 71.2754 62.1406 70.5918 61.7109C69.9082 61.2812 69.4785 60.5684 69.3027 59.5723C69.127 58.5762 69.2344 57.3457 69.625 55.8809C70.3281 53.9082 70.9238 52.7363 71.4121 52.3652C71.8809 51.9941 72.3105 51.8867 72.7012 52.043C73.1113 52.1992 73.3652 52.4922 73.4629 52.9219C73.541 53.332 73.3359 53.7422 72.8477 54.1523H72.9062L72.877 54.1816C72.1738 55.5879 71.627 56.8281 71.2363 57.9023C71.002 58.918 71.0312 59.7676 71.3242 60.4512C71.7734 60.6465 72.291 60.4902 72.877 59.9824C73.4629 59.4941 74.0391 58.8691 74.6055 58.1074C75.1719 57.3262 75.6602 56.623 76.0703 55.998C76.3047 55.6465 76.4902 55.373 76.627 55.1777C76.7832 54.9629 76.9395 54.7188 77.0957 54.4453C78.4238 52.4531 79.6934 50.8613 80.9043 49.6699C81.1387 49.4746 81.3535 49.4453 81.5488 49.582C81.7637 49.7188 81.9395 49.9434 82.0762 50.2559C82.1934 50.6465 82.0469 51.5352 81.6367 52.9219C81.4219 53.8203 81.2754 54.6699 81.1973 55.4707C81.1191 56.252 81.2461 56.9453 81.5781 57.5508C82.4375 58.3516 83.4434 58.7129 84.5957 58.6348C85.7676 58.5566 86.9492 58.2637 88.1406 57.7559C88.3945 57.6387 88.5703 57.5605 88.668 57.5215C88.7266 57.4824 88.7949 57.4629 88.873 57.4629C89.0098 57.4629 89.1172 57.5312 89.1953 57.668C89.2344 57.707 89.2637 57.7559 89.2832 57.8145C89.3613 58.0098 89.6152 58.3809 90.0449 58.9277C90.2207 59.1816 90.4258 59.4453 90.6602 59.7188L90.7188 59.8066L91.0117 60.1289C91.4414 60.5586 91.8711 60.832 92.3008 60.9492C92.8477 61.0859 93.5996 60.5488 94.5566 59.3379C95.2793 58.4785 96.2363 56.9844 97.4277 54.8555L97.6035 54.5039C96.8223 54.9336 95.9238 55.041 94.9082 54.8262C94.0293 54.4941 93.5996 53.9277 93.6191 53.127C93.5996 52.5215 93.8047 51.9258 94.2344 51.3398C94.6641 50.793 95.1621 50.2656 95.7285 49.7578C96.3926 49.2305 96.9883 48.8984 97.5156 48.7617C98.2188 48.5664 98.9512 48.5859 99.7129 48.8203C100.436 49.0156 100.65 49.5039 100.357 50.2852C100.221 50.5977 100.094 50.9004 99.9766 51.1934C99.7617 51.7402 99.5664 52.2188 99.3906 52.6289C99.8203 52.2773 100.299 51.8086 100.826 51.2227C101.139 50.6953 101.48 50.1582 101.852 49.6113C102.164 49.1816 102.633 49.0645 103.258 49.2598C103.883 49.4355 104.088 49.8164 103.873 50.4023C102.74 51.8281 101.842 53.4785 101.178 55.3535C100.494 57.2285 100.504 58.752 101.207 59.9238C101.734 60.2754 102.271 60.3926 102.818 60.2754C103.365 60.1582 103.795 60.041 104.107 59.9238C104.4 59.8066 104.684 59.6992 104.957 59.6016C107.047 58.7422 109.068 57.7168 111.021 56.5254C112.955 55.334 114.723 53.9375 116.324 52.3359C116.812 52.2773 116.988 52.3848 116.852 52.6582C116.695 52.9121 116.344 53.2637 115.797 53.7129C115.25 54.1621 114.654 54.6309 114.01 55.1191C113.346 55.5879 112.75 55.9883 112.223 56.3203C111.695 56.6719 111.373 56.877 111.256 56.9355C109.791 57.8535 108.287 58.7129 106.744 59.5137C105.201 60.2949 103.658 60.9395 102.115 61.4473C100.572 61.7988 99.5371 61.5352 99.0098 60.6562C98.4824 59.7773 98.3262 58.7227 98.541 57.4922C98.6777 56.4766 99.1172 55.0703 99.8594 53.2734C99.5273 53.625 99.1562 53.918 98.7461 54.1523C98.707 54.25 98.6289 54.3867 98.5117 54.5625L97.6914 55.9395C97.5156 56.252 97.3203 56.584 97.1055 56.9355C96.6953 57.5996 96.2559 58.3223 95.7871 59.1035C95.377 59.7285 94.9668 60.2559 94.5566 60.6855C94.1465 61.1152 93.6875 61.457 93.1797 61.7109C92.1641 62.2188 91.2754 61.9551 90.5137 60.9199C90.4551 60.8613 90.416 60.8125 90.3965 60.7734C89.9473 60.168 89.5664 59.6113 89.2539 59.1035C89.0391 58.791 88.8828 58.5469 88.7852 58.3711L88.6387 58.1367ZM154.85 52.541C154.967 52.4434 155.074 52.4238 155.172 52.4824C155.289 52.5215 155.367 52.5996 155.406 52.7168C155.445 52.8145 155.416 52.9121 155.318 53.0098C152.643 55.3926 149.527 56.8379 145.973 57.3457C145.523 57.4043 145.064 57.4238 144.596 57.4043C144.127 57.3848 143.697 57.2383 143.307 56.9648C142.584 56.3789 142.008 55.6855 141.578 54.8848C141.5 54.7676 141.412 54.6309 141.314 54.4746C141.119 54.1426 140.895 53.8203 140.641 53.5078C140.406 53.1953 140.143 53.0098 139.85 52.9512C139.186 53.3613 138.619 53.9277 138.15 54.6504C138.033 54.8262 137.916 54.9922 137.799 55.1484C137.486 55.5586 137.184 55.9785 136.891 56.4082C136.383 57.1699 135.836 57.9219 135.25 58.6641C134.742 59.3672 134.225 59.709 133.697 59.6895C133.17 59.6504 132.76 59.1914 132.467 58.3125C132.018 56.2422 131.842 54.1523 131.939 52.043C130.436 54.0156 128.971 56.0176 127.545 58.0488C126.9 58.9277 126.266 59.8066 125.641 60.6855C125.543 60.8418 125.436 60.9883 125.318 61.125C124.811 61.8477 124.283 62.5605 123.736 63.2637C123.697 63.3223 123.658 63.3711 123.619 63.4102C123.502 63.5859 123.336 63.7324 123.121 63.8496C122.926 63.9277 122.75 63.9082 122.594 63.791C122.438 63.6738 122.369 63.5078 122.389 63.293C122.467 62.7461 122.545 62.1895 122.623 61.623C122.701 61.0371 122.789 60.4512 122.887 59.8652C123.062 58.9277 123.268 57.9902 123.502 57.0527C123.58 56.8184 123.648 56.5742 123.707 56.3203C123.746 56.125 123.795 55.9199 123.854 55.7051C124.127 54.6699 124.391 53.7129 124.645 52.834C124.82 52.3262 125.113 52.043 125.523 51.9844C125.934 51.9258 126.295 52.0332 126.607 52.3066C126.92 52.5801 127.008 52.9805 126.871 53.5078C126.383 54.9531 125.855 56.4375 125.289 57.9609C125.211 58.1953 125.133 58.4199 125.055 58.6348C124.859 59.2598 124.615 59.8848 124.322 60.5098C124.303 60.5684 124.283 60.627 124.264 60.6855C124.4 60.4512 124.537 60.2266 124.674 60.0117C126.451 57.1406 128.229 54.2109 130.006 51.2227C130.104 51.0469 130.201 50.8711 130.299 50.6953C130.416 50.5 130.543 50.2949 130.68 50.0801C131.207 49.1816 131.734 48.332 132.262 47.5312C132.574 47.1406 132.926 46.9551 133.316 46.9746C133.707 46.9746 134.039 47.1309 134.312 47.4434C134.586 47.7363 134.693 48.1172 134.635 48.5859C134.283 49.4844 134.068 50.7148 133.99 52.2773C133.912 53.8203 134 55.2168 134.254 56.4668C134.664 56.0371 135.055 55.6074 135.426 55.1777C136.129 54.3379 136.9 53.5371 137.74 52.7754C138.404 52.1504 139.059 51.8086 139.703 51.75C140.348 51.6719 140.895 52.0918 141.344 53.0098C141.48 53.2637 141.637 53.5371 141.812 53.8301C142.145 54.5137 142.545 55.168 143.014 55.793C143.482 56.3984 144.039 56.7305 144.684 56.7891C146.012 56.8086 147.311 56.6133 148.58 56.2031C149.869 55.793 151.08 55.2559 152.213 54.5918C153.189 54.0059 154.068 53.3223 154.85 52.541ZM173.746 52.4531C173.941 52.6875 173.912 52.9512 173.658 53.2441C173.424 53.5371 173.141 53.8203 172.809 54.0938C172.574 54.2891 172.408 54.4453 172.311 54.5625C171.568 55.2266 170.338 56.1055 168.619 57.1992C166.9 58.293 165.016 59.3086 162.965 60.2461C160.914 61.1836 159.039 61.75 157.34 61.9453C155.641 62.1406 154.449 61.6816 153.766 60.5684C153.121 58.9277 152.984 57.2188 153.355 55.4414C153.707 53.6445 154.41 52.0527 155.465 50.666C156.09 49.9238 156.842 49.5137 157.721 49.4355C158.6 49.3574 159.146 49.8848 159.361 51.0176C159.498 51.584 159.332 52.209 158.863 52.8926C158.395 53.5566 157.809 54.1719 157.105 54.7383C156.422 55.3047 155.826 55.6953 155.318 55.9102C155.084 57.1406 155.016 58.1855 155.113 59.0449C155.27 60.2949 156.012 60.9004 157.34 60.8613C158.688 60.8223 160.25 60.4414 162.027 59.7188C163.824 58.9766 165.494 58.166 167.037 57.2871C168.58 56.4082 169.645 55.7441 170.23 55.2949C171.344 54.5137 172.33 53.5957 173.189 52.541C173.268 52.4434 173.355 52.3945 173.453 52.3945C173.57 52.375 173.668 52.3945 173.746 52.4531ZM157.545 51.6328C156.666 52.2383 156.031 53.2344 155.641 54.6211C156.129 54.1719 156.578 53.6738 156.988 53.127C157.398 52.5605 157.584 52.0625 157.545 51.6328ZM197.799 52.5117C198.404 52.3945 198.639 52.502 198.502 52.834C198.365 53.1465 198.004 53.5859 197.418 54.1523C196.832 54.6992 196.168 55.2754 195.426 55.8809C194.684 56.4863 194.02 57.0039 193.434 57.4336C192.848 57.8438 192.486 58.0781 192.35 58.1367C190.396 59.4258 188.268 60.5 185.963 61.3594C183.678 62.1992 181.363 62.2285 179.02 61.4473C178.141 61.1348 177.311 60.7148 176.529 60.1875C175.689 61.2617 174.898 62.3652 174.156 63.498C173.961 63.7715 173.707 63.9375 173.395 63.9961C173.102 64.0742 172.809 64.0254 172.516 63.8496C171.988 63.4785 171.979 62.8242 172.486 61.8867C172.975 60.9492 173.746 59.8848 174.801 58.6934C174.488 58.3223 174.215 57.9219 173.98 57.4922C173.238 56.125 172.916 54.6797 173.014 53.1562C173.072 52.668 173.287 52.3555 173.658 52.2188C174.029 52.0625 174.4 52.0723 174.771 52.248C175.143 52.4043 175.338 52.7168 175.357 53.1855C175.436 54.6113 175.768 55.8906 176.354 57.0234C177.682 55.6758 178.941 54.4746 180.133 53.4199C181.324 52.3652 182.145 51.6719 182.594 51.3398C182.906 51.125 183.199 51.0859 183.473 51.2227C183.746 51.3594 183.922 51.584 184 51.8965C184.078 52.1895 183.98 52.4629 183.707 52.7168C181.5 54.5723 179.479 56.6035 177.643 58.8105C178.521 59.709 179.576 60.334 180.807 60.6855C182.057 61.0176 183.424 60.9785 184.908 60.5684C189.967 59.123 194.264 56.4375 197.799 52.5117ZM226.305 52.541C226.52 52.7168 226.471 53.0391 226.158 53.5078C225.865 53.9766 225.445 54.4844 224.898 55.0312C224.371 55.5781 223.854 56.0859 223.346 56.5547C222.838 57.0039 222.486 57.3066 222.291 57.4629C220.729 58.7129 219.029 59.6895 217.193 60.3926C215.338 61.0762 213.463 61.4766 211.568 61.5938C209.674 61.7109 207.799 61.6328 205.943 61.3594C205.846 61.3594 205.768 61.3203 205.709 61.2422C205.514 61.6719 205.328 62.1113 205.152 62.5605C204.957 63.2637 204.752 63.9668 204.537 64.6699C204.498 64.8652 204.4 65.0117 204.244 65.1094C204.068 65.207 203.893 65.2461 203.717 65.2266C203.365 65.0703 203.209 64.7969 203.248 64.4062C203.287 64.0156 203.395 63.6055 203.57 63.1758C203.688 62.8438 203.766 62.5508 203.805 62.2969C203.863 62.0625 203.932 61.8281 204.01 61.5938L206.646 52.4238C206.979 51.5059 207.32 50.9785 207.672 50.8418C208.043 50.7051 208.355 50.7832 208.609 51.0762C208.883 51.3496 208.932 51.7109 208.756 52.1602L207.291 55.4707C208.072 54.4746 208.912 53.5469 209.811 52.6875C210.631 51.9258 211.441 51.2031 212.242 50.5195C212.555 50.2461 212.857 49.9824 213.15 49.7285C213.482 49.4355 213.814 49.3281 214.146 49.4062C214.498 49.4844 214.762 49.6699 214.938 49.9629C215.113 50.2559 215.113 50.5977 214.938 50.9883C213.902 52.7852 212.701 54.4648 211.334 56.0273C209.967 57.5898 208.541 59.0938 207.057 60.5391C210.592 60.9883 214 60.5684 217.281 59.2793C220.562 57.9902 223.336 55.7832 225.602 52.6582C225.699 52.541 225.807 52.4727 225.924 52.4531C226.061 52.4336 226.188 52.4629 226.305 52.541ZM210.104 55.1777C208.736 56.5059 207.564 57.9805 206.588 59.6016C206.998 59.1133 207.418 58.6152 207.848 58.1074C208.629 57.1699 209.381 56.1934 210.104 55.1777ZM255.455 52.541C255.572 52.4434 255.68 52.4238 255.777 52.4824C255.895 52.5215 255.973 52.5996 256.012 52.7168C256.051 52.8145 256.021 52.9121 255.924 53.0098C253.248 55.3926 250.133 56.8379 246.578 57.3457C246.129 57.4043 245.67 57.4238 245.201 57.4043C244.732 57.3848 244.303 57.2383 243.912 56.9648C243.189 56.3789 242.613 55.6855 242.184 54.8848C242.105 54.7676 242.018 54.6309 241.92 54.4746C241.725 54.1426 241.5 53.8203 241.246 53.5078C241.012 53.1953 240.748 53.0098 240.455 52.9512C239.791 53.3613 239.225 53.9277 238.756 54.6504C238.639 54.8262 238.521 54.9922 238.404 55.1484C238.092 55.5586 237.789 55.9785 237.496 56.4082C236.988 57.1699 236.441 57.9219 235.855 58.6641C235.348 59.3672 234.83 59.709 234.303 59.6895C233.775 59.6504 233.365 59.1914 233.072 58.3125C232.623 56.2422 232.447 54.1523 232.545 52.043C231.041 54.0156 229.576 56.0176 228.15 58.0488C227.506 58.9277 226.871 59.8066 226.246 60.6855C226.148 60.8418 226.041 60.9883 225.924 61.125C225.416 61.8477 224.889 62.5605 224.342 63.2637C224.303 63.3223 224.264 63.3711 224.225 63.4102C224.107 63.5859 223.941 63.7324 223.727 63.8496C223.531 63.9277 223.355 63.9082 223.199 63.791C223.043 63.6738 222.975 63.5078 222.994 63.293C223.072 62.7461 223.15 62.1895 223.229 61.623C223.307 61.0371 223.395 60.4512 223.492 59.8652C223.668 58.9277 223.873 57.9902 224.107 57.0527C224.186 56.8184 224.254 56.5742 224.312 56.3203C224.352 56.125 224.4 55.9199 224.459 55.7051C224.732 54.6699 224.996 53.7129 225.25 52.834C225.426 52.3262 225.719 52.043 226.129 51.9844C226.539 51.9258 226.9 52.0332 227.213 52.3066C227.525 52.5801 227.613 52.9805 227.477 53.5078C226.988 54.9531 226.461 56.4375 225.895 57.9609C225.816 58.1953 225.738 58.4199 225.66 58.6348C225.465 59.2598 225.221 59.8848 224.928 60.5098C224.908 60.5684 224.889 60.627 224.869 60.6855C225.006 60.4512 225.143 60.2266 225.279 60.0117C227.057 57.1406 228.834 54.2109 230.611 51.2227C230.709 51.0469 230.807 50.8711 230.904 50.6953C231.021 50.5 231.148 50.2949 231.285 50.0801C231.812 49.1816 232.34 48.332 232.867 47.5312C233.18 47.1406 233.531 46.9551 233.922 46.9746C234.312 46.9746 234.645 47.1309 234.918 47.4434C235.191 47.7363 235.299 48.1172 235.24 48.5859C234.889 49.4844 234.674 50.7148 234.596 52.2773C234.518 53.8203 234.605 55.2168 234.859 56.4668C235.27 56.0371 235.66 55.6074 236.031 55.1777C236.734 54.3379 237.506 53.5371 238.346 52.7754C239.01 52.1504 239.664 51.8086 240.309 51.75C240.953 51.6719 241.5 52.0918 241.949 53.0098C242.086 53.2637 242.242 53.5371 242.418 53.8301C242.75 54.5137 243.15 55.168 243.619 55.793C244.088 56.3984 244.645 56.7305 245.289 56.7891C246.617 56.8086 247.916 56.6133 249.186 56.2031C250.475 55.793 251.686 55.2559 252.818 54.5918C253.795 54.0059 254.674 53.3223 255.455 52.541ZM275.436 52.6582C275.494 52.8926 275.357 53.0781 275.025 53.2148C274.713 53.3516 274.371 53.459 274 53.5371C273.707 53.6152 273.492 53.6836 273.355 53.7422C271.402 54.25 269.42 54.5137 267.408 54.5332C267.311 54.5332 267.213 54.5332 267.115 54.5332C266.354 54.5137 265.455 54.4648 264.42 54.3867C263.385 54.3086 262.398 54.123 261.461 53.8301C261.5 55.3145 261.236 56.7598 260.67 58.166C260.123 59.5723 259.352 60.6367 258.355 61.3594C257.184 62.1992 256.109 62.4336 255.133 62.0625C254.156 61.6914 253.531 60.8027 253.258 59.3965C252.965 56.8184 253.6 54.4648 255.162 52.3359C255.963 51.3008 256.949 50.4902 258.121 49.9043C258.668 49.6895 259.107 49.7676 259.439 50.1387C259.615 49.9629 259.84 49.9434 260.113 50.0801C260.777 50.8418 261.197 51.7891 261.373 52.9219C262.35 53.3125 263.443 53.5664 264.654 53.6836C265.865 53.7812 266.783 53.8301 267.408 53.8301C270.045 53.8496 272.584 53.4004 275.025 52.4824C275.104 52.4434 275.182 52.4434 275.26 52.4824C275.338 52.5215 275.396 52.5801 275.436 52.6582ZM260.172 52.1309C260.113 51.8379 260.025 51.5547 259.908 51.2812C259.908 51.5938 259.996 51.877 260.172 52.1309ZM256.158 60.8906C257.662 60.5391 258.775 59.6113 259.498 58.1074C260.24 56.6035 260.543 55.0215 260.406 53.3613C259.801 53.0293 259.381 52.5801 259.146 52.0137C258.053 52.5801 257.174 53.3809 256.51 54.416C255.865 55.4316 255.445 56.5352 255.25 57.7266C255.25 57.8047 255.24 57.8828 255.221 57.9609C255.162 58.5273 255.162 59.1133 255.221 59.7188C255.299 60.3242 255.611 60.7148 256.158 60.8906ZM308.512 52.5703C308.609 52.4531 308.717 52.4141 308.834 52.4531C308.951 52.4727 309.039 52.5312 309.098 52.6289C309.156 52.7266 309.146 52.834 309.068 52.9512C308.873 53.1855 308.668 53.3906 308.453 53.5664C307.262 54.4844 305.729 55.5195 303.854 56.6719C301.998 57.8242 300.104 58.6445 298.17 59.1328C296.256 59.6016 294.615 59.2793 293.248 58.166C292.74 57.6387 292.398 56.7988 292.223 55.6465C292.066 54.4746 292.066 53.3418 292.223 52.248C290.367 53.6543 288.58 55.2656 286.861 57.082C285.162 58.8789 283.824 60.7148 282.848 62.5898C282.594 62.8828 282.291 63.0195 281.939 63C281.588 62.9805 281.295 62.8438 281.061 62.5898C280.826 62.3164 280.748 61.9844 280.826 61.5938C281.178 60.0117 281.617 58.4395 282.145 56.877C282.34 56.252 282.525 55.627 282.701 55.002C282.701 55.002 282.701 54.9922 282.701 54.9727C282.916 54.2891 283.102 53.5957 283.258 52.8926C283.395 52.4043 283.668 52.1211 284.078 52.043C284.488 51.9453 284.859 52.0234 285.191 52.2773C285.523 52.5117 285.641 52.8828 285.543 53.3906C285.211 54.7969 284.82 56.2031 284.371 57.6094C284.254 57.9414 284.146 58.2637 284.049 58.5762C285.377 57.3457 286.676 56.0762 287.945 54.7676C289.664 52.9707 291.451 51.2715 293.307 49.6699C293.541 49.4746 293.756 49.4453 293.951 49.582C294.166 49.7188 294.342 49.9434 294.479 50.2559C294.693 50.7832 294.742 51.3398 294.625 51.9258C294.527 52.5117 294.371 53.0977 294.156 53.6836C293.922 54.3477 293.746 55.0117 293.629 55.6758C293.531 56.3203 293.648 56.9453 293.98 57.5508C294.84 58.3516 295.846 58.7129 296.998 58.6348C298.17 58.5566 299.342 58.2637 300.514 57.7559C301.705 57.248 302.74 56.7402 303.619 56.2324C303.756 56.1543 303.902 56.0664 304.059 55.9688C305.738 55.0508 307.223 53.918 308.512 52.5703ZM328.756 52.6582C328.814 52.8926 328.678 53.0781 328.346 53.2148C328.033 53.3516 327.691 53.459 327.32 53.5371C327.027 53.6152 326.812 53.6836 326.676 53.7422C324.723 54.25 322.74 54.5137 320.729 54.5332C320.631 54.5332 320.533 54.5332 320.436 54.5332C319.674 54.5137 318.775 54.4648 317.74 54.3867C316.705 54.3086 315.719 54.123 314.781 53.8301C314.82 55.3145 314.557 56.7598 313.99 58.166C313.443 59.5723 312.672 60.6367 311.676 61.3594C310.504 62.1992 309.43 62.4336 308.453 62.0625C307.477 61.6914 306.852 60.8027 306.578 59.3965C306.285 56.8184 306.92 54.4648 308.482 52.3359C309.283 51.3008 310.27 50.4902 311.441 49.9043C311.988 49.6895 312.428 49.7676 312.76 50.1387C312.936 49.9629 313.16 49.9434 313.434 50.0801C314.098 50.8418 314.518 51.7891 314.693 52.9219C315.67 53.3125 316.764 53.5664 317.975 53.6836C319.186 53.7812 320.104 53.8301 320.729 53.8301C323.365 53.8496 325.904 53.4004 328.346 52.4824C328.424 52.4434 328.502 52.4434 328.58 52.4824C328.658 52.5215 328.717 52.5801 328.756 52.6582ZM313.492 52.1309C313.434 51.8379 313.346 51.5547 313.229 51.2812C313.229 51.5938 313.316 51.877 313.492 52.1309ZM309.479 60.8906C310.982 60.5391 312.096 59.6113 312.818 58.1074C313.561 56.6035 313.863 55.0215 313.727 53.3613C313.121 53.0293 312.701 52.5801 312.467 52.0137C311.373 52.5801 310.494 53.3809 309.83 54.416C309.186 55.4316 308.766 56.5352 308.57 57.7266C308.57 57.8047 308.561 57.8828 308.541 57.9609C308.482 58.5273 308.482 59.1133 308.541 59.7188C308.619 60.3242 308.932 60.7148 309.479 60.8906ZM331.48 53.8008C331.5 53.8008 331.51 53.791 331.51 53.7715C331.51 53.791 331.5 53.8008 331.48 53.8008ZM326.676 62.1504C326.656 62.1504 326.646 62.1406 326.646 62.1211L326.676 62.1504ZM335.846 52.6289C335.24 53.0781 334.615 53.6055 333.971 54.2109C333.287 54.8359 332.701 55.4023 332.213 55.9102C331.705 56.3984 331.402 56.6914 331.305 56.7891C330.934 57.2188 330.543 57.6484 330.133 58.0781C329.508 58.7422 328.902 59.4258 328.316 60.1289C328.746 59.0742 329.059 58.2344 329.254 57.6094C329.801 56.2422 330.289 54.8652 330.719 53.4785C330.855 52.9902 330.768 52.6094 330.455 52.3359C330.143 52.0625 329.781 51.9551 329.371 52.0137C328.961 52.0723 328.668 52.3359 328.492 52.8047C328.277 53.5078 328.033 54.1914 327.76 54.8555V54.8848L327.086 56.7012C326.441 58.2246 325.885 59.7578 325.416 61.3008C325.299 61.6914 325.348 62.0234 325.562 62.2969C325.777 62.5898 326.061 62.7559 326.412 62.7949C326.764 62.834 327.076 62.7168 327.35 62.4434C327.662 62.0918 328.229 61.418 329.049 60.4219C330.553 58.6055 332.145 56.9453 333.824 55.4414C334.391 55.0508 334.918 54.6895 335.406 54.3574C335.191 55.7637 335.289 57.0625 335.699 58.2539C336.227 59.7578 337.506 60.5586 339.537 60.6562C341.412 60.2852 343.141 59.5039 344.723 58.3125C346.305 57.1211 347.799 55.8223 349.205 54.416L350.494 53.1855C350.65 53.0293 350.699 52.873 350.641 52.7168C350.582 52.5801 350.475 52.4922 350.318 52.4531C350.162 52.4141 350.006 52.4727 349.85 52.6289C349.166 53.4688 348.434 54.2695 347.652 55.0312C346.09 56.5938 344.361 57.9219 342.467 59.0156C341.275 59.7383 340.094 60.0117 338.922 59.8359C337.77 59.6602 336.998 58.8984 336.607 57.5508C336.393 56.3398 336.539 55.1387 337.047 53.9473C337.223 53.5371 337.418 53.1465 337.633 52.7754C338.082 52.4238 338.473 52.1211 338.805 51.8672C339.371 51.2812 339.518 50.5879 339.244 49.7871C339.244 49.748 339.234 49.709 339.215 49.6699C339.078 49.3574 338.834 49.1426 338.482 49.0254C338.15 48.9082 337.809 49.0547 337.457 49.4648C336.93 50.0898 336.393 51.1445 335.846 52.6289ZM351.607 54.0645C351.607 54.084 351.598 54.0938 351.578 54.0938C351.598 54.0938 351.607 54.084 351.607 54.0645ZM372.174 52.541C372.779 52.3652 373.033 52.4336 372.936 52.7461C372.838 53.0391 372.525 53.4785 371.998 54.0645C371.471 54.6309 370.865 55.2266 370.182 55.8516C369.498 56.457 368.883 56.9941 368.336 57.4629C367.809 57.9121 367.486 58.1758 367.369 58.2539C366.92 58.5859 366.461 58.9375 365.992 59.3086C364.82 60.2461 363.6 61.1055 362.33 61.8867C361.061 62.6484 359.684 63.1172 358.199 63.293C357.086 63.1562 356.334 62.6973 355.943 61.916C355.553 61.1348 355.387 60.2266 355.445 59.1914C355.504 58.1562 355.65 57.1797 355.885 56.2617C354.928 57.4336 353.854 58.4883 352.662 59.4258C351.49 60.1289 350.562 60.2656 349.879 59.8359C349.195 59.4062 348.766 58.6934 348.59 57.6973C348.414 56.7012 348.502 55.7051 348.854 54.709C349.166 53.5176 349.557 52.7363 350.025 52.3652C350.514 51.9941 350.953 51.8867 351.344 52.043C351.754 52.1992 351.998 52.4922 352.076 52.9219C352.174 53.332 351.979 53.7422 351.49 54.1523C351.51 54.1523 351.529 54.1523 351.549 54.1523C351.568 54.1328 351.578 54.1133 351.578 54.0938C351.559 54.1133 351.539 54.1426 351.52 54.1816C351.148 54.8066 350.826 55.5293 350.553 56.3496C350.299 57.1504 350.318 57.8926 350.611 58.5762C351.061 58.7715 351.578 58.625 352.164 58.1367C352.75 57.6289 353.326 56.9941 353.893 56.2324C354.459 55.4512 354.947 54.748 355.357 54.123C355.592 53.7715 355.777 53.498 355.914 53.3027C356.07 53.0879 356.227 52.8438 356.383 52.5703C356.715 51.9258 357.145 51.418 357.672 51.0469C358.023 50.832 358.355 50.8027 358.668 50.959C359 51.0957 359.225 51.3398 359.342 51.6914C359.459 52.0234 359.391 52.3457 359.137 52.6582C359.059 52.7559 358.99 52.8438 358.932 52.9219C358.912 52.9219 358.902 52.9219 358.902 52.9219L358.932 52.9512C358.912 52.9707 358.883 53 358.844 53.0391C358.824 53.0586 358.814 53.0781 358.814 53.0977C358.541 53.4492 358.307 53.8105 358.111 54.1816C357.252 55.8027 356.734 57.5215 356.559 59.3379C356.52 61.4473 357.184 62.4434 358.551 62.3262C359.938 62.209 361.598 61.4863 363.531 60.1582C365.484 58.8301 367.291 57.4043 368.951 55.8809C370.611 54.3574 371.686 53.2441 372.174 52.541ZM374.752 52.2188C374.771 52.2188 374.781 52.209 374.781 52.1895C374.781 52.209 374.771 52.2188 374.752 52.2188ZM405.836 52.1895C405.836 52.209 405.826 52.2188 405.807 52.2188C405.826 52.2188 405.836 52.209 405.836 52.1895ZM386.852 54.7676L386.5 55.3242C386.246 55.6562 385.992 56.0078 385.738 56.3789C385.23 57.1406 384.684 57.8926 384.098 58.6348C383.59 59.3379 383.072 59.6797 382.545 59.6602C382.018 59.6211 381.607 59.1621 381.314 58.2832C381.197 57.7559 381.07 57.209 380.934 56.6426C380.875 56.1738 380.846 55.832 380.846 55.6172C380.768 54.6602 380.895 53.5859 381.227 52.3945C379.898 54.4648 378.658 56.3398 377.506 58.0195C376.529 59.2695 375.445 60.3633 374.254 61.3008C373.082 62.0039 372.154 62.1406 371.471 61.7109C370.787 61.2812 370.357 60.5684 370.182 59.5723C370.006 58.5762 370.113 57.3457 370.504 55.8809C371.207 53.9082 371.803 52.7363 372.291 52.3652C372.76 51.9941 373.189 51.8867 373.58 52.043C373.99 52.1992 374.244 52.4922 374.342 52.9219C374.42 53.332 374.215 53.7422 373.727 54.1523H373.785L373.756 54.1816C373.053 55.5879 372.506 56.8281 372.115 57.9023C371.881 58.918 371.91 59.7676 372.203 60.4512C372.652 60.6465 373.17 60.4902 373.756 59.9824C374.342 59.4941 374.918 58.8691 375.484 58.1074C376.051 57.3262 376.539 56.623 376.949 55.998C377.184 55.6465 377.369 55.373 377.506 55.1777C377.662 54.9629 377.818 54.7188 377.975 54.4453C379.303 52.4531 380.572 50.8613 381.783 49.6699C382.018 49.4746 382.232 49.4453 382.428 49.582C382.643 49.7188 382.818 49.9434 382.955 50.2559C383.072 50.6465 382.926 51.5352 382.516 52.9219C382.203 55.1875 382.223 56.5938 382.574 57.1406C383.336 56.2422 383.902 55.5781 384.273 55.1484C384.566 54.8164 384.928 54.3672 385.357 53.8008C386.666 52.043 387.809 50.666 388.785 49.6699C389.02 49.4746 389.234 49.4453 389.43 49.582C389.645 49.7188 389.82 49.9434 389.957 50.2559C390.074 50.6465 389.928 51.5352 389.518 52.9219C389.303 53.8203 389.156 54.6602 389.078 55.4414C389 56.2422 389.127 56.9453 389.459 57.5508C390.318 58.3516 391.324 58.7129 392.477 58.6348C393.648 58.5566 394.82 58.2637 395.992 57.7559C397.184 57.248 398.219 56.7402 399.098 56.2324C399.215 56.1543 399.361 56.0664 399.537 55.9688C401.217 55.0508 402.701 53.918 403.99 52.5703C404.088 52.4531 404.195 52.4141 404.312 52.4531C404.43 52.4727 404.518 52.5312 404.576 52.6289C404.635 52.7266 404.625 52.834 404.547 52.9512C404.352 53.1855 404.146 53.3906 403.932 53.5664C402.74 54.4844 401.207 55.5195 399.332 56.6719C397.477 57.8242 395.582 58.6445 393.648 59.1328C391.734 59.6016 390.094 59.2793 388.727 58.166C388.219 57.6387 387.926 56.7891 387.848 55.6172C387.77 54.6602 387.896 53.5859 388.229 52.3945C387.74 53.293 387.281 54.084 386.852 54.7676ZM424.703 52.5996C424.781 52.4629 424.889 52.4043 425.025 52.4238C425.162 52.4434 425.27 52.5117 425.348 52.6289C425.426 52.7266 425.426 52.8438 425.348 52.9805C424.781 53.7812 424.127 54.4941 423.385 55.1191C422.643 55.7246 421.871 56.3008 421.07 56.8477C420.934 56.9453 420.807 57.0332 420.689 57.1113C418.756 58.4395 416.891 59.4648 415.094 60.1875C413.297 60.8906 411.734 61.0273 410.406 60.5977C409.098 60.1484 408.18 58.8398 407.652 56.6719C406.363 58.5859 404.977 60.4316 403.492 62.209C402.711 62.9902 401.91 63.2148 401.09 62.8828C400.25 62.5312 399.918 61.7891 400.094 60.6562C400.895 57.1016 402.564 54.0156 405.104 51.3984C405.924 50.5586 406.93 49.8848 408.121 49.377C408.59 49.2012 408.971 49.2598 409.264 49.5527C409.576 49.8457 409.723 50.207 409.703 50.6367C409.684 51.0469 409.439 51.3496 408.971 51.5449C407.506 52.2871 406.275 53.3418 405.279 54.709C404.303 56.0566 403.541 57.5215 402.994 59.1035C404.596 57.0332 406.09 54.8848 407.477 52.6582C407.691 52.3262 407.975 52.1504 408.326 52.1309C408.697 52.1113 409.01 52.2188 409.264 52.4531C409.537 52.6875 409.664 53 409.645 53.3906C409.254 54.582 409.146 55.8125 409.322 57.082C409.518 58.332 410.26 59.2109 411.549 59.7188C413.482 59.6992 415.436 59.1523 417.408 58.0781C419.381 57.0039 421.139 55.8711 422.682 54.6797C423.482 54.0938 424.156 53.4004 424.703 52.5996ZM443.922 52.4531C444.117 52.6875 444.088 52.9512 443.834 53.2441C443.6 53.5371 443.316 53.8203 442.984 54.0938C442.75 54.2891 442.584 54.4453 442.486 54.5625C441.744 55.2266 440.514 56.1055 438.795 57.1992C437.076 58.293 435.191 59.3086 433.141 60.2461C431.09 61.1836 429.215 61.75 427.516 61.9453C425.816 62.1406 424.625 61.6816 423.941 60.5684C423.297 58.9277 423.16 57.2188 423.531 55.4414C423.883 53.6445 424.586 52.0527 425.641 50.666C426.266 49.9238 427.018 49.5137 427.896 49.4355C428.775 49.3574 429.322 49.8848 429.537 51.0176C429.674 51.584 429.508 52.209 429.039 52.8926C428.57 53.5566 427.984 54.1719 427.281 54.7383C426.598 55.3047 426.002 55.6953 425.494 55.9102C425.26 57.1406 425.191 58.1855 425.289 59.0449C425.445 60.2949 426.188 60.9004 427.516 60.8613C428.863 60.8223 430.426 60.4414 432.203 59.7188C434 58.9766 435.67 58.166 437.213 57.2871C438.756 56.4082 439.82 55.7441 440.406 55.2949C441.52 54.5137 442.506 53.5957 443.365 52.541C443.443 52.4434 443.531 52.3945 443.629 52.3945C443.746 52.375 443.844 52.3945 443.922 52.4531ZM427.721 51.6328C426.842 52.2383 426.207 53.2344 425.816 54.6211C426.305 54.1719 426.754 53.6738 427.164 53.127C427.574 52.5605 427.76 52.0625 427.721 51.6328ZM473.248 52.541C473.365 52.4434 473.473 52.4238 473.57 52.4824C473.688 52.5215 473.766 52.5996 473.805 52.7168C473.844 52.8145 473.814 52.9121 473.717 53.0098C471.041 55.3926 467.926 56.8379 464.371 57.3457C463.922 57.4043 463.463 57.4238 462.994 57.4043C462.525 57.3848 462.096 57.2383 461.705 56.9648C460.982 56.3789 460.406 55.6855 459.977 54.8848C459.898 54.7676 459.811 54.6309 459.713 54.4746C459.518 54.1426 459.293 53.8203 459.039 53.5078C458.805 53.1953 458.541 53.0098 458.248 52.9512C457.584 53.3613 457.018 53.9277 456.549 54.6504C456.432 54.8262 456.314 54.9922 456.197 55.1484C455.885 55.5586 455.582 55.9785 455.289 56.4082C454.781 57.1699 454.234 57.9219 453.648 58.6641C453.141 59.3672 452.623 59.709 452.096 59.6895C451.568 59.6504 451.158 59.1914 450.865 58.3125C450.416 56.2422 450.24 54.1523 450.338 52.043C448.834 54.0156 447.369 56.0176 445.943 58.0488C445.299 58.9277 444.664 59.8066 444.039 60.6855C443.941 60.8418 443.834 60.9883 443.717 61.125C443.209 61.8477 442.682 62.5605 442.135 63.2637C442.096 63.3223 442.057 63.3711 442.018 63.4102C441.9 63.5859 441.734 63.7324 441.52 63.8496C441.324 63.9277 441.148 63.9082 440.992 63.791C440.836 63.6738 440.768 63.5078 440.787 63.293C440.865 62.7461 440.943 62.1895 441.021 61.623C441.1 61.0371 441.188 60.4512 441.285 59.8652C441.461 58.9277 441.666 57.9902 441.9 57.0527C441.979 56.8184 442.047 56.5742 442.105 56.3203C442.145 56.125 442.193 55.9199 442.252 55.7051C442.525 54.6699 442.789 53.7129 443.043 52.834C443.219 52.3262 443.512 52.043 443.922 51.9844C444.332 51.9258 444.693 52.0332 445.006 52.3066C445.318 52.5801 445.406 52.9805 445.27 53.5078C444.781 54.9531 444.254 56.4375 443.688 57.9609C443.609 58.1953 443.531 58.4199 443.453 58.6348C443.258 59.2598 443.014 59.8848 442.721 60.5098C442.701 60.5684 442.682 60.627 442.662 60.6855C442.799 60.4512 442.936 60.2266 443.072 60.0117C444.85 57.1406 446.627 54.2109 448.404 51.2227C448.502 51.0469 448.6 50.8711 448.697 50.6953C448.814 50.5 448.941 50.2949 449.078 50.0801C449.605 49.1816 450.133 48.332 450.66 47.5312C450.973 47.1406 451.324 46.9551 451.715 46.9746C452.105 46.9746 452.438 47.1309 452.711 47.4434C452.984 47.7363 453.092 48.1172 453.033 48.5859C452.682 49.4844 452.467 50.7148 452.389 52.2773C452.311 53.8203 452.398 55.2168 452.652 56.4668C453.062 56.0371 453.453 55.6074 453.824 55.1777C454.527 54.3379 455.299 53.5371 456.139 52.7754C456.803 52.1504 457.457 51.8086 458.102 51.75C458.746 51.6719 459.293 52.0918 459.742 53.0098C459.879 53.2637 460.035 53.5371 460.211 53.8301C460.543 54.5137 460.943 55.168 461.412 55.793C461.881 56.3984 462.438 56.7305 463.082 56.7891C464.41 56.8086 465.709 56.6133 466.979 56.2031C468.268 55.793 469.479 55.2559 470.611 54.5918C471.588 54.0059 472.467 53.3223 473.248 52.541Z" fill="#21306F"/>
</svg>
