<svg width="325" height="112" viewBox="0 0 325 112" fill="none" xmlns="http://www.w3.org/2000/svg">
<path d="M56.5039 30.1582C60.2539 34.2598 62.6758 39.0156 63.7695 44.4258C64.8828 49.8164 64.8535 55.1875 63.6816 60.5391C62.3926 66.6133 60.0391 72.043 56.6211 76.8281C53.2031 81.6133 49.043 85.6465 44.1406 88.9277C39.2383 92.2285 33.8965 94.6797 28.1152 96.2812C22.3535 97.8828 16.4844 98.5371 10.5078 98.2441C6.19141 98.1074 3.29102 97.1309 1.80664 95.3145C0.322266 93.498 -0.0292969 91.2715 0.751953 88.6348C1.55273 85.998 3.21289 83.3711 5.73242 80.7539C6.86523 79.5625 8.06641 78.459 9.33594 77.4434C10.4688 71.3691 12.1875 64.9238 14.4922 58.1074C16.8164 51.2715 19.707 44.7188 23.1641 38.4492C26.6406 32.1797 30.6543 26.8281 35.2051 22.3945C34.9316 22.3555 34.6484 22.3262 34.3555 22.3066C29.5312 21.9355 24.8926 22.6875 20.4395 24.5625C16.5918 26.2227 13.2617 28.6836 10.4492 31.9453C7.65625 35.207 5.9375 38.9277 5.29297 43.1074C5.01953 45.4707 5.39062 47.7168 6.40625 49.8457C6.64062 50.4316 6.58203 50.9004 6.23047 51.252C5.89844 51.6035 5.48828 51.75 5 51.6914C4.51172 51.6133 4.17969 51.2617 4.00391 50.6367C3.35938 47.2383 3.51562 43.918 4.47266 40.6758C5.42969 37.4336 6.97266 34.4648 9.10156 31.7695C11.2305 29.0742 13.7109 26.8184 16.543 25.002C19.4922 23.166 22.666 21.8672 26.0645 21.1055C29.7363 20.3047 33.457 20.1387 37.2266 20.6074C39.6484 18.5371 42.2168 16.877 44.9316 15.627C47.666 14.3574 50.5273 13.5859 53.5156 13.3125C55.6641 13.1758 57.793 13.3223 59.9023 13.752C60.3125 13.8496 60.625 14.0645 60.8398 14.3965C61.0547 14.709 61.123 15.0703 61.0449 15.4805C60.9473 15.8906 60.7324 16.2031 60.4004 16.418C60.0684 16.6328 59.6875 16.7012 59.2578 16.623C55.7617 15.9004 52.4316 15.9688 49.2676 16.8281C46.123 17.668 43.1738 19.1133 40.4199 21.1641C46.6699 22.5703 52.0312 25.5684 56.5039 30.1582ZM60.9277 59.9824C61.7285 55.9395 61.875 51.8672 61.3672 47.7656C60.8789 43.6641 59.6094 39.8066 57.5586 36.1934C55.4492 32.6777 52.6953 29.7871 49.2969 27.5215C45.918 25.2559 42.2363 23.7031 38.252 22.8633C34.209 26.418 30.6152 30.7051 27.4707 35.7246C24.3457 40.7441 21.6895 45.8809 19.502 51.1348C17.3145 56.3887 15.625 61.125 14.4336 65.3438C13.4961 68.6641 12.7051 72.0332 12.0605 75.4512C16.3184 72.6191 20.957 70.6953 25.9766 69.6797C29.707 68.918 33.4668 68.7812 37.2559 69.2695C38.5254 69.4453 39.7754 69.6895 41.0059 70.002C41.3574 70.0996 41.6113 70.2949 41.7676 70.5879C41.9434 70.8809 41.9922 71.2031 41.9141 71.5547C41.8164 71.9062 41.6113 72.1602 41.2988 72.3164C41.0059 72.4922 40.6836 72.5312 40.332 72.4336C39.1992 72.1016 38.0566 71.8379 36.9043 71.6426C32.4707 70.959 28.0762 71.1641 23.7207 72.2578C19.3848 73.3516 15.3711 75.168 11.6797 77.707C11.1719 80.8906 10.918 84.0938 10.918 87.3164C10.8789 87.9805 10.6152 88.4199 10.127 88.6348C9.6582 88.8496 9.18945 88.8398 8.7207 88.6055C8.25195 88.3906 8.00781 87.9414 7.98828 87.2578C8.16406 84.9727 8.47656 82.4922 8.92578 79.8164C8.18359 80.4414 7.4707 81.0957 6.78711 81.7793C5.2832 83.2051 4.00391 84.8164 2.94922 86.6133C1.5625 89.0547 1.15234 91.2324 1.71875 93.1465C2.28516 95.0801 4.0332 96.3496 6.96289 96.9551C9.95117 97.4238 12.959 97.541 15.9863 97.3066C21.2988 96.9551 26.4355 95.8125 31.3965 93.8789C38.8965 91.0078 45.293 86.623 50.5859 80.7246C55.8789 74.8457 59.3262 67.9316 60.9277 59.9824ZM73.8184 52.2188C73.8379 52.2188 73.8477 52.209 73.8477 52.1895C73.8477 52.209 73.8379 52.2188 73.8184 52.2188ZM99.1016 50.7539L99.1602 50.6367L99.1895 50.5488C99.2676 50.3926 99.082 50.2656 98.6328 50.168C97.9883 50.0898 97.2852 50.3145 96.5234 50.8418C95.7617 51.3496 95.2734 51.9355 95.0586 52.5996C94.7266 53.5176 95.1074 53.918 96.2012 53.8008C96.6895 53.7031 97.3047 53.4883 98.0469 53.1562C98.418 52.375 98.7695 51.5742 99.1016 50.7539ZM88.584 58.1367C87.7051 58.5469 86.7578 58.8691 85.7422 59.1035C83.8086 59.5918 82.1582 59.2793 80.791 58.166C80.2832 57.6387 79.9902 56.7891 79.9121 55.6172C79.834 54.6602 79.9609 53.5859 80.293 52.3945C78.9648 54.4648 77.7246 56.3398 76.5723 58.0195C75.5957 59.2695 74.5117 60.3633 73.3203 61.3008C72.1484 62.0039 71.2207 62.1406 70.5371 61.7109C69.8535 61.2812 69.4238 60.5684 69.248 59.5723C69.0723 58.5762 69.1797 57.3457 69.5703 55.8809C70.2734 53.9082 70.8691 52.7363 71.3574 52.3652C71.8262 51.9941 72.2559 51.8867 72.6465 52.043C73.0566 52.1992 73.3105 52.4922 73.4082 52.9219C73.4863 53.332 73.2812 53.7422 72.793 54.1523H72.8516L72.8223 54.1816C72.1191 55.5879 71.5723 56.8281 71.1816 57.9023C70.9473 58.918 70.9766 59.7676 71.2695 60.4512C71.7188 60.6465 72.2363 60.4902 72.8223 59.9824C73.4082 59.4941 73.9844 58.8691 74.5508 58.1074C75.1172 57.3262 75.6055 56.623 76.0156 55.998C76.25 55.6465 76.4355 55.373 76.5723 55.1777C76.7285 54.9629 76.8848 54.7188 77.041 54.4453C78.3691 52.4531 79.6387 50.8613 80.8496 49.6699C81.084 49.4746 81.2988 49.4453 81.4941 49.582C81.709 49.7188 81.8848 49.9434 82.0215 50.2559C82.1387 50.6465 81.9922 51.5352 81.582 52.9219C81.3672 53.8203 81.2207 54.6699 81.1426 55.4707C81.0645 56.252 81.1914 56.9453 81.5234 57.5508C82.3828 58.3516 83.3887 58.7129 84.541 58.6348C85.7129 58.5566 86.8945 58.2637 88.0859 57.7559C88.3398 57.6387 88.5156 57.5605 88.6133 57.5215C88.6719 57.4824 88.7402 57.4629 88.8184 57.4629C88.9551 57.4629 89.0625 57.5312 89.1406 57.668C89.1797 57.707 89.209 57.7559 89.2285 57.8145C89.3066 58.0098 89.5605 58.3809 89.9902 58.9277C90.166 59.1816 90.3711 59.4453 90.6055 59.7188L90.6641 59.8066L90.957 60.1289C91.3867 60.5586 91.8164 60.832 92.2461 60.9492C92.793 61.0859 93.5449 60.5488 94.502 59.3379C95.2246 58.4785 96.1816 56.9844 97.373 54.8555L97.5488 54.5039C96.7676 54.9336 95.8691 55.041 94.8535 54.8262C93.9746 54.4941 93.5449 53.9277 93.5645 53.127C93.5449 52.5215 93.75 51.9258 94.1797 51.3398C94.6094 50.793 95.1074 50.2656 95.6738 49.7578C96.3379 49.2305 96.9336 48.8984 97.4609 48.7617C98.1641 48.5664 98.8965 48.5859 99.6582 48.8203C100.381 49.0156 100.596 49.5039 100.303 50.2852C100.166 50.5977 100.039 50.9004 99.9219 51.1934C99.707 51.7402 99.5117 52.2188 99.3359 52.6289C99.7656 52.2773 100.244 51.8086 100.771 51.2227C101.084 50.6953 101.426 50.1582 101.797 49.6113C102.109 49.1816 102.578 49.0645 103.203 49.2598C103.828 49.4355 104.033 49.8164 103.818 50.4023C102.686 51.8281 101.787 53.4785 101.123 55.3535C100.439 57.2285 100.449 58.752 101.152 59.9238C101.68 60.2754 102.217 60.3926 102.764 60.2754C103.311 60.1582 103.74 60.041 104.053 59.9238C104.346 59.8066 104.629 59.6992 104.902 59.6016C106.992 58.7422 109.014 57.7168 110.967 56.5254C112.9 55.334 114.668 53.9375 116.27 52.3359C116.758 52.2773 116.934 52.3848 116.797 52.6582C116.641 52.9121 116.289 53.2637 115.742 53.7129C115.195 54.1621 114.6 54.6309 113.955 55.1191C113.291 55.5879 112.695 55.9883 112.168 56.3203C111.641 56.6719 111.318 56.877 111.201 56.9355C109.736 57.8535 108.232 58.7129 106.689 59.5137C105.146 60.2949 103.604 60.9395 102.061 61.4473C100.518 61.7988 99.4824 61.5352 98.9551 60.6562C98.4277 59.7773 98.2715 58.7227 98.4863 57.4922C98.623 56.4766 99.0625 55.0703 99.8047 53.2734C99.4727 53.625 99.1016 53.918 98.6914 54.1523C98.6523 54.25 98.5742 54.3867 98.457 54.5625L97.6367 55.9395C97.4609 56.252 97.2656 56.584 97.0508 56.9355C96.6406 57.5996 96.2012 58.3223 95.7324 59.1035C95.3223 59.7285 94.9121 60.2559 94.502 60.6855C94.0918 61.1152 93.6328 61.457 93.125 61.7109C92.1094 62.2188 91.2207 61.9551 90.459 60.9199C90.4004 60.8613 90.3613 60.8125 90.3418 60.7734C89.8926 60.168 89.5117 59.6113 89.1992 59.1035C88.9844 58.791 88.8281 58.5469 88.7305 58.3711L88.584 58.1367ZM131.27 50.2852C131.504 49.9141 131.807 49.7188 132.178 49.6992C132.568 49.6602 132.891 49.7676 133.145 50.0215C133.418 50.2559 133.506 50.5879 133.408 51.0176C132.041 56.9551 130.43 62.8438 128.574 68.6836C128.887 68.6445 129.15 68.6543 129.365 68.7129C129.6 68.7715 129.727 68.9473 129.746 69.2402C129.707 69.3574 129.639 69.4551 129.541 69.5332C129.443 69.6113 129.336 69.6406 129.219 69.6211C128.906 69.5625 128.594 69.543 128.281 69.5625C127.109 73.0977 125.703 76.5645 124.062 79.9629C122.539 83.0684 120.762 86.0566 118.73 88.9277C118.496 89.2402 118.203 89.4062 117.852 89.4258C117.48 89.4648 117.158 89.3574 116.885 89.1035C116.436 88.5957 116.162 87.668 116.064 86.3203C115.947 84.9922 116.074 83.6738 116.445 82.3652C117.129 79.9434 118.291 77.5312 119.932 75.1289C121.553 72.7266 123.525 70.8809 125.85 69.5918C127.275 65.4121 128.516 61.1836 129.57 56.9062C128.848 58.0586 128.027 59.1328 127.109 60.1289C125.84 61.4766 124.609 62.0527 123.418 61.8574C122.207 61.6621 121.631 60.6074 121.689 58.6934C121.924 57.1895 122.422 55.7637 123.184 54.416C123.945 53.0684 124.893 51.8477 126.025 50.7539C127.217 49.6992 128.223 49.0938 129.043 48.9375C129.863 48.7812 130.459 48.8691 130.83 49.2012C131.201 49.5332 131.309 49.9238 131.152 50.373C130.996 50.8027 130.547 51.0859 129.805 51.2227C128.906 51.418 127.949 52.0918 126.934 53.2441C125.938 54.377 125.146 55.627 124.561 56.9941C123.955 58.3418 123.818 59.4258 124.15 60.2461L124.004 60.1875C124.746 60.5 125.459 60.3242 126.143 59.6602C126.846 58.9961 127.48 58.1465 128.047 57.1113C128.633 56.0762 129.111 55.1484 129.482 54.3281C129.619 54.0352 129.746 53.7812 129.863 53.5664C130.117 52.9805 130.371 52.3848 130.625 51.7793C130.84 51.291 131.055 50.793 131.27 50.2852ZM117.588 86.6426C120.928 81.6035 123.564 76.2715 125.498 70.6465C123.447 71.9355 121.729 73.6836 120.342 75.8906C118.936 78.1172 117.979 80.3242 117.471 82.5117C117.451 82.5312 117.441 82.5605 117.441 82.5996C117.344 83.2051 117.275 83.8887 117.236 84.6504C117.197 85.4121 117.314 86.0762 117.588 86.6426ZM140.615 54.0645C140.615 54.084 140.605 54.0938 140.586 54.0938C140.605 54.0938 140.615 54.084 140.615 54.0645ZM161.182 52.541C161.787 52.3652 162.041 52.4336 161.943 52.7461C161.846 53.0391 161.533 53.4785 161.006 54.0645C160.479 54.6309 159.873 55.2266 159.189 55.8516C158.506 56.457 157.891 56.9941 157.344 57.4629C156.816 57.9121 156.494 58.1758 156.377 58.2539C155.928 58.5859 155.469 58.9375 155 59.3086C153.828 60.2461 152.607 61.1055 151.338 61.8867C150.068 62.6484 148.691 63.1172 147.207 63.293C146.094 63.1562 145.342 62.6973 144.951 61.916C144.561 61.1348 144.395 60.2266 144.453 59.1914C144.512 58.1562 144.658 57.1797 144.893 56.2617C143.936 57.4336 142.861 58.4883 141.67 59.4258C140.498 60.1289 139.57 60.2656 138.887 59.8359C138.203 59.4062 137.773 58.6934 137.598 57.6973C137.422 56.7012 137.51 55.7051 137.861 54.709C138.174 53.5176 138.564 52.7363 139.033 52.3652C139.521 51.9941 139.961 51.8867 140.352 52.043C140.762 52.1992 141.006 52.4922 141.084 52.9219C141.182 53.332 140.986 53.7422 140.498 54.1523C140.518 54.1523 140.537 54.1523 140.557 54.1523C140.576 54.1328 140.586 54.1133 140.586 54.0938C140.566 54.1133 140.547 54.1426 140.527 54.1816C140.156 54.8066 139.834 55.5293 139.561 56.3496C139.307 57.1504 139.326 57.8926 139.619 58.5762C140.068 58.7715 140.586 58.625 141.172 58.1367C141.758 57.6289 142.334 56.9941 142.9 56.2324C143.467 55.4512 143.955 54.748 144.365 54.123C144.6 53.7715 144.785 53.498 144.922 53.3027C145.078 53.0879 145.234 52.8438 145.391 52.5703C145.723 51.9258 146.152 51.418 146.68 51.0469C147.031 50.832 147.363 50.8027 147.676 50.959C148.008 51.0957 148.232 51.3398 148.35 51.6914C148.467 52.0234 148.398 52.3457 148.145 52.6582C148.066 52.7559 147.998 52.8438 147.939 52.9219C147.92 52.9219 147.91 52.9219 147.91 52.9219L147.939 52.9512C147.92 52.9707 147.891 53 147.852 53.0391C147.832 53.0586 147.822 53.0781 147.822 53.0977C147.549 53.4492 147.314 53.8105 147.119 54.1816C146.26 55.8027 145.742 57.5215 145.566 59.3379C145.527 61.4473 146.191 62.4434 147.559 62.3262C148.945 62.209 150.605 61.4863 152.539 60.1582C154.492 58.8301 156.299 57.4043 157.959 55.8809C159.619 54.3574 160.693 53.2441 161.182 52.541ZM161.885 69.6797L162.266 68.7422C162.969 67.2969 163.34 65.9688 163.379 64.7578C163.379 64.5039 163.359 64.2598 163.32 64.0254C161.934 65.0996 160.723 66.4277 159.688 68.0098C158.301 70.0996 157.354 72.1895 156.846 74.2793C156.826 74.2988 156.816 74.3281 156.816 74.3672C156.719 74.9531 156.65 75.6074 156.611 76.3301C156.572 77.0527 156.689 77.6875 156.963 78.2344C159.287 74.8945 160.928 72.043 161.885 69.6797ZM167.949 61.0957C169.219 60.9004 170.752 60.4414 172.549 59.7188C174.326 58.9766 175.986 58.166 177.529 57.2871C179.072 56.4082 180.137 55.7441 180.723 55.2949C181.836 54.5137 182.822 53.5957 183.682 52.541C183.76 52.4434 183.857 52.3945 183.975 52.3945C184.072 52.375 184.16 52.3945 184.238 52.4531C184.434 52.6875 184.414 52.9512 184.18 53.2441C183.926 53.5371 183.633 53.8203 183.301 54.0938C183.066 54.2891 182.9 54.4453 182.803 54.5625C182.061 55.2266 180.83 56.1055 179.111 57.1992C177.393 58.293 175.508 59.3086 173.457 60.2461C171.406 61.1836 169.531 61.75 167.832 61.9453C167.734 61.9648 167.5 62.0137 167.129 62.0918C166.758 62.1699 166.289 62.3359 165.723 62.5898C165.84 62.9023 165.928 63.2344 165.986 63.5859C166.143 64.7773 166.006 66.0176 165.576 67.3066L165.43 67.6875C165.117 68.5273 164.756 69.3672 164.346 70.207C164.053 70.8516 163.76 71.4277 163.467 71.9355C161.924 74.8457 160.137 77.668 158.105 80.4023C157.871 80.6953 157.568 80.8613 157.197 80.9004C156.846 80.9199 156.533 80.8125 156.26 80.5781C155.811 80.0898 155.527 79.2109 155.41 77.9414C155.312 76.6523 155.449 75.3828 155.82 74.1328C156.504 71.8281 157.656 69.5332 159.277 67.248C160.391 65.6855 161.67 64.3672 163.115 63.293C162.881 62.707 162.461 62.1895 161.855 61.7402C161.328 61.3301 161.211 60.8711 161.504 60.3633C161.797 59.8555 162.275 59.2793 162.939 58.6348C163.584 58.0098 164.189 57.3066 164.756 56.5254C165.342 55.7441 165.693 54.8652 165.811 53.8887C165.908 52.5996 165.684 51.75 165.137 51.3398C164.59 50.9297 163.74 51.1836 162.588 52.1016C162.314 52.3164 162.07 52.541 161.855 52.7754C161.777 52.8535 161.689 52.8828 161.592 52.8633C161.494 52.8438 161.426 52.7949 161.387 52.7168C161.348 52.6191 161.367 52.5215 161.445 52.4238C162.539 51.0371 163.555 50.2949 164.492 50.1973C165.449 50.0996 166.182 50.4902 166.689 51.3691C167.217 52.248 167.383 53.4395 167.188 54.9434C166.973 55.959 166.582 56.9258 166.016 57.8438C165.469 58.7422 164.863 59.6016 164.199 60.4219C164.707 60.8906 165.107 61.3789 165.4 61.8867C166.143 61.4961 166.992 61.2324 167.949 61.0957ZM204.16 52.5996C204.238 52.4629 204.346 52.4043 204.482 52.4238C204.619 52.4434 204.727 52.5117 204.805 52.6289C204.883 52.7266 204.883 52.8438 204.805 52.9805C204.238 53.7812 203.584 54.4941 202.842 55.1191C202.1 55.7246 201.328 56.3008 200.527 56.8477C200.391 56.9453 200.264 57.0332 200.146 57.1113C198.213 58.4395 196.348 59.4648 194.551 60.1875C192.754 60.8906 191.191 61.0273 189.863 60.5977C188.555 60.1484 187.637 58.8398 187.109 56.6719C185.82 58.5859 184.434 60.4316 182.949 62.209C182.168 62.9902 181.367 63.2148 180.547 62.8828C179.707 62.5312 179.375 61.7891 179.551 60.6562C180.352 57.1016 182.021 54.0156 184.561 51.3984C185.381 50.5586 186.387 49.8848 187.578 49.377C188.047 49.2012 188.428 49.2598 188.721 49.5527C189.033 49.8457 189.18 50.207 189.16 50.6367C189.141 51.0469 188.896 51.3496 188.428 51.5449C186.963 52.2871 185.732 53.3418 184.736 54.709C183.76 56.0566 182.998 57.5215 182.451 59.1035C184.053 57.0332 185.547 54.8848 186.934 52.6582C187.148 52.3262 187.432 52.1504 187.783 52.1309C188.154 52.1113 188.467 52.2188 188.721 52.4531C188.994 52.6875 189.121 53 189.102 53.3906C188.711 54.582 188.604 55.8125 188.779 57.082C188.975 58.332 189.717 59.2109 191.006 59.7188C192.939 59.6992 194.893 59.1523 196.865 58.0781C198.838 57.0039 200.596 55.8711 202.139 54.6797C202.939 54.0938 203.613 53.4004 204.16 52.5996ZM206.006 54.0645C206.006 54.084 205.996 54.0938 205.977 54.0938C205.996 54.0938 206.006 54.084 206.006 54.0645ZM226.572 52.541C227.178 52.3652 227.432 52.4336 227.334 52.7461C227.236 53.0391 226.924 53.4785 226.396 54.0645C225.869 54.6309 225.264 55.2266 224.58 55.8516C223.896 56.457 223.281 56.9941 222.734 57.4629C222.207 57.9121 221.885 58.1758 221.768 58.2539C221.318 58.5859 220.859 58.9375 220.391 59.3086C219.219 60.2461 217.998 61.1055 216.729 61.8867C215.459 62.6484 214.082 63.1172 212.598 63.293C211.484 63.1562 210.732 62.6973 210.342 61.916C209.951 61.1348 209.785 60.2266 209.844 59.1914C209.902 58.1562 210.049 57.1797 210.283 56.2617C209.326 57.4336 208.252 58.4883 207.061 59.4258C205.889 60.1289 204.961 60.2656 204.277 59.8359C203.594 59.4062 203.164 58.6934 202.988 57.6973C202.812 56.7012 202.9 55.7051 203.252 54.709C203.564 53.5176 203.955 52.7363 204.424 52.3652C204.912 51.9941 205.352 51.8867 205.742 52.043C206.152 52.1992 206.396 52.4922 206.475 52.9219C206.572 53.332 206.377 53.7422 205.889 54.1523C205.908 54.1523 205.928 54.1523 205.947 54.1523C205.967 54.1328 205.977 54.1133 205.977 54.0938C205.957 54.1133 205.938 54.1426 205.918 54.1816C205.547 54.8066 205.225 55.5293 204.951 56.3496C204.697 57.1504 204.717 57.8926 205.01 58.5762C205.459 58.7715 205.977 58.625 206.562 58.1367C207.148 57.6289 207.725 56.9941 208.291 56.2324C208.857 55.4512 209.346 54.748 209.756 54.123C209.99 53.7715 210.176 53.498 210.312 53.3027C210.469 53.0879 210.625 52.8438 210.781 52.5703C211.113 51.9258 211.543 51.418 212.07 51.0469C212.422 50.832 212.754 50.8027 213.066 50.959C213.398 51.0957 213.623 51.3398 213.74 51.6914C213.857 52.0234 213.789 52.3457 213.535 52.6582C213.457 52.7559 213.389 52.8438 213.33 52.9219H213.301L213.33 52.9512C213.311 52.9707 213.281 53 213.242 53.0391C213.223 53.0586 213.213 53.0781 213.213 53.0977C212.939 53.4492 212.705 53.8105 212.51 54.1816C211.65 55.8027 211.133 57.5215 210.957 59.3379C210.918 61.4473 211.582 62.4434 212.949 62.3262C214.336 62.209 215.996 61.4863 217.93 60.1582C219.883 58.8301 221.689 57.4043 223.35 55.8809C225.01 54.3574 226.084 53.2441 226.572 52.541ZM205.947 39.9727V39.9434C205.967 39.9434 205.977 39.9336 205.977 39.9141C205.957 39.9336 205.947 39.9531 205.947 39.9727ZM211.514 49.4062C210.342 50.1094 209.414 50.2461 208.73 49.8164C208.047 49.3867 207.617 48.6738 207.441 47.6777C207.422 47.5801 207.412 47.4922 207.412 47.4141C207.334 46.9844 207.607 46.6719 208.232 46.4766C208.877 46.3789 209.219 46.5645 209.258 47.0332C209.199 47.5801 209.268 48.0879 209.463 48.5566C209.912 48.752 210.43 48.5957 211.016 48.0879C211.309 47.834 211.611 47.541 211.924 47.209C212.197 47.0332 212.48 47.0625 212.773 47.2969C213.066 47.6094 213.066 47.9512 212.773 48.3223C212.363 48.6934 211.943 49.0547 211.514 49.4062ZM229.824 53.8008C229.844 53.8008 229.854 53.791 229.854 53.7715C229.854 53.791 229.844 53.8008 229.824 53.8008ZM225.02 62.1504C225 62.1504 224.99 62.1406 224.99 62.1211L225.02 62.1504ZM234.189 52.6289C233.584 53.0781 232.959 53.6055 232.314 54.2109C231.631 54.8359 231.045 55.4023 230.557 55.9102C230.049 56.3984 229.746 56.6914 229.648 56.7891C229.277 57.2188 228.887 57.6484 228.477 58.0781C227.852 58.7422 227.246 59.4258 226.66 60.1289C227.09 59.0742 227.402 58.2344 227.598 57.6094C228.145 56.2422 228.633 54.8652 229.062 53.4785C229.199 52.9902 229.111 52.6094 228.799 52.3359C228.486 52.0625 228.125 51.9551 227.715 52.0137C227.305 52.0723 227.012 52.3359 226.836 52.8047C226.621 53.5078 226.377 54.1914 226.104 54.8555V54.8848L225.43 56.7012C224.785 58.2246 224.229 59.7578 223.76 61.3008C223.643 61.6914 223.691 62.0234 223.906 62.2969C224.121 62.5898 224.404 62.7559 224.756 62.7949C225.107 62.834 225.42 62.7168 225.693 62.4434C226.006 62.0918 226.572 61.418 227.393 60.4219C228.896 58.6055 230.488 56.9453 232.168 55.4414C232.734 55.0508 233.262 54.6895 233.75 54.3574C233.535 55.7637 233.633 57.0625 234.043 58.2539C234.57 59.7578 235.85 60.5586 237.881 60.6562C239.756 60.2852 241.484 59.5039 243.066 58.3125C244.648 57.1211 246.143 55.8223 247.549 54.416L248.838 53.1855C248.994 53.0293 249.043 52.873 248.984 52.7168C248.926 52.5801 248.818 52.4922 248.662 52.4531C248.506 52.4141 248.35 52.4727 248.193 52.6289C247.51 53.4688 246.777 54.2695 245.996 55.0312C244.434 56.5938 242.705 57.9219 240.811 59.0156C239.619 59.7383 238.438 60.0117 237.266 59.8359C236.113 59.6602 235.342 58.8984 234.951 57.5508C234.736 56.3398 234.883 55.1387 235.391 53.9473C235.566 53.5371 235.762 53.1465 235.977 52.7754C236.426 52.4238 236.816 52.1211 237.148 51.8672C237.715 51.2812 237.861 50.5879 237.588 49.7871C237.588 49.748 237.578 49.709 237.559 49.6699C237.422 49.3574 237.178 49.1426 236.826 49.0254C236.494 48.9082 236.152 49.0547 235.801 49.4648C235.273 50.0898 234.736 51.1445 234.189 52.6289ZM267.324 52.4531C267.52 52.6875 267.49 52.9512 267.236 53.2441C267.002 53.5371 266.719 53.8203 266.387 54.0938C266.152 54.2891 265.986 54.4453 265.889 54.5625C265.146 55.2266 263.916 56.1055 262.197 57.1992C260.479 58.293 258.594 59.3086 256.543 60.2461C254.492 61.1836 252.617 61.75 250.918 61.9453C249.219 62.1406 248.027 61.6816 247.344 60.5684C246.699 58.9277 246.562 57.2188 246.934 55.4414C247.285 53.6445 247.988 52.0527 249.043 50.666C249.668 49.9238 250.42 49.5137 251.299 49.4355C252.178 49.3574 252.725 49.8848 252.939 51.0176C253.076 51.584 252.91 52.209 252.441 52.8926C251.973 53.5566 251.387 54.1719 250.684 54.7383C250 55.3047 249.404 55.6953 248.896 55.9102C248.662 57.1406 248.594 58.1855 248.691 59.0449C248.848 60.2949 249.59 60.9004 250.918 60.8613C252.266 60.8223 253.828 60.4414 255.605 59.7188C257.402 58.9766 259.072 58.166 260.615 57.2871C262.158 56.4082 263.223 55.7441 263.809 55.2949C264.922 54.5137 265.908 53.5957 266.768 52.541C266.846 52.4434 266.934 52.3945 267.031 52.3945C267.148 52.375 267.246 52.3945 267.324 52.4531ZM251.123 51.6328C250.244 52.2383 249.609 53.2344 249.219 54.6211C249.707 54.1719 250.156 53.6738 250.566 53.127C250.977 52.5605 251.162 52.0625 251.123 51.6328ZM267.969 58.4297V58.4883C267.969 58.4688 267.959 58.459 267.939 58.459C267.959 58.4395 267.969 58.4297 267.969 58.4297ZM289.062 52.541C289.18 52.4238 289.297 52.3848 289.414 52.4238C289.531 52.4629 289.609 52.541 289.648 52.6582C289.707 52.7754 289.678 52.8926 289.561 53.0098C288.096 54.416 286.484 55.6172 284.727 56.6133C282.969 57.6094 281.133 58.4492 279.219 59.1328C275.254 60.5391 271.162 61.0078 266.943 60.5391L266.973 60.5098C266.973 60.5098 266.963 60.5098 266.943 60.5098C266.943 60.5098 266.943 60.5 266.943 60.4805C266.318 63.4688 265.566 66.3984 264.688 69.2695C263.789 72.1602 262.52 74.8945 260.879 77.4727C260.801 77.6094 260.684 77.6973 260.527 77.7363C260.352 77.7754 260.195 77.7559 260.059 77.6777C259.883 77.5801 259.785 77.2871 259.766 76.7988C259.746 76.3105 259.775 75.7637 259.854 75.1582C259.912 74.5527 259.971 74.0254 260.029 73.5762C260.068 73.3418 260.098 73.166 260.117 73.0488C260.957 68.2637 262.607 63.7715 265.068 59.5723C265.479 57.3262 265.928 55.0898 266.416 52.8633C266.572 52.375 266.855 52.0918 267.266 52.0137C267.676 51.9355 268.037 52.0234 268.35 52.2773C268.682 52.5312 268.799 52.9219 268.701 53.4492C268.564 53.918 268.428 54.3867 268.291 54.8555C269.404 53.4492 270.635 52.2969 271.982 51.3984C273.35 50.4805 274.697 50.334 276.025 50.959C277.686 52.248 278.35 53.4785 278.018 54.6504C277.705 55.8223 276.875 56.8477 275.527 57.7266C274.18 58.5859 272.812 59.2207 271.426 59.6309C274.16 59.748 276.885 59.3281 279.6 58.3711C282.314 57.4141 284.756 56.1348 286.924 54.5332C287.705 53.9277 288.418 53.2637 289.062 52.541ZM261.201 74.2207C262.471 71.3496 263.398 68.3613 263.984 65.2559C264.062 64.8457 264.141 64.4355 264.219 64.0254C262.695 67.2871 261.689 70.6855 261.201 74.2207ZM267.939 58.459C267.9 58.498 267.891 58.5371 267.91 58.5762L267.969 58.4883C268.145 58.625 268.34 58.7617 268.555 58.8984C269.16 58.957 269.785 58.8789 270.43 58.6641C270.625 58.6055 270.83 58.5566 271.045 58.5176C272.002 58.2637 273.057 57.8047 274.209 57.1406C275.381 56.4766 276.172 55.7051 276.582 54.8262C276.992 53.9473 276.553 53.0391 275.264 52.1016C274.6 51.8477 273.896 51.916 273.154 52.3066C272.432 52.6973 271.748 53.2148 271.104 53.8594C270.459 54.4844 269.932 55.0312 269.521 55.5C268.838 56.3594 268.184 57.248 267.559 58.166C267.617 58.1855 267.676 58.2148 267.734 58.2539C267.793 58.332 267.861 58.4004 267.939 58.459ZM309.424 52.6582C309.482 52.8926 309.346 53.0781 309.014 53.2148C308.701 53.3516 308.359 53.459 307.988 53.5371C307.695 53.6152 307.48 53.6836 307.344 53.7422C305.391 54.25 303.408 54.5137 301.396 54.5332C301.299 54.5332 301.201 54.5332 301.104 54.5332C300.342 54.5137 299.443 54.4648 298.408 54.3867C297.373 54.3086 296.387 54.123 295.449 53.8301C295.488 55.3145 295.225 56.7598 294.658 58.166C294.111 59.5723 293.34 60.6367 292.344 61.3594C291.172 62.1992 290.098 62.4336 289.121 62.0625C288.145 61.6914 287.52 60.8027 287.246 59.3965C286.953 56.8184 287.588 54.4648 289.15 52.3359C289.951 51.3008 290.938 50.4902 292.109 49.9043C292.656 49.6895 293.096 49.7676 293.428 50.1387C293.604 49.9629 293.828 49.9434 294.102 50.0801C294.766 50.8418 295.186 51.7891 295.361 52.9219C296.338 53.3125 297.432 53.5664 298.643 53.6836C299.854 53.7812 300.771 53.8301 301.396 53.8301C304.033 53.8496 306.572 53.4004 309.014 52.4824C309.092 52.4434 309.17 52.4434 309.248 52.4824C309.326 52.5215 309.385 52.5801 309.424 52.6582ZM294.16 52.1309C294.102 51.8379 294.014 51.5547 293.896 51.2812C293.896 51.5938 293.984 51.877 294.16 52.1309ZM290.146 60.8906C291.65 60.5391 292.764 59.6113 293.486 58.1074C294.229 56.6035 294.531 55.0215 294.395 53.3613C293.789 53.0293 293.369 52.5801 293.135 52.0137C292.041 52.5801 291.162 53.3809 290.498 54.416C289.854 55.4316 289.434 56.5352 289.238 57.7266C289.238 57.8047 289.229 57.8828 289.209 57.9609C289.15 58.5273 289.15 59.1133 289.209 59.7188C289.287 60.3242 289.6 60.7148 290.146 60.8906ZM325.361 52.5117C325.459 52.4141 325.557 52.3848 325.654 52.4238C325.752 52.4629 325.811 52.5312 325.83 52.6289C325.869 52.7266 325.84 52.8145 325.742 52.8926C323.965 54.2402 322.09 55.4121 320.117 56.4082C318.145 57.4043 316.143 58.293 314.111 59.0742C313.662 59.2305 313.193 59.4062 312.705 59.6016C312.686 59.6016 312.676 59.6016 312.676 59.6016C313.066 60.1875 313.32 60.8125 313.438 61.4766C313.418 62.9609 313.027 64.3867 312.266 65.7539C311.523 67.1211 310.635 68.3613 309.6 69.4746C309.58 69.4941 309.551 69.5234 309.512 69.5625C309.18 69.8945 308.73 70.3047 308.164 70.793C307.578 71.2812 307.002 71.6621 306.436 71.9355C305.85 72.209 305.391 72.1699 305.059 71.8184C304.395 70.4512 304.404 68.1758 305.088 64.9922C305.771 61.8086 306.816 58.3027 308.223 54.4746C309.609 50.6465 311.025 47.082 312.471 43.7812C313.936 40.4805 315.088 38.0293 315.928 36.4277C316.104 36.1348 316.27 35.8418 316.426 35.5488C316.836 34.7676 317.285 34.0156 317.773 33.293C318.262 32.5508 318.867 31.9063 319.59 31.3594C319.961 31.0859 320.322 31.0469 320.674 31.2422C321.025 31.4375 321.182 31.75 321.143 32.1797C320.713 34.3281 320.156 36.4277 319.473 38.4785C318.066 42.3652 316.201 46.0469 313.877 49.5234C313.857 49.5625 313.809 49.6309 313.73 49.7285C313.516 50.041 313.164 50.5488 312.676 51.252C312.207 51.9355 311.709 52.6094 311.182 53.2734C310.537 54.9727 309.912 56.6816 309.307 58.4004C309.365 58.3809 309.424 58.3613 309.482 58.3418C310.225 58.127 310.889 58.1855 311.475 58.5176C313.682 58.4199 316.201 57.7168 319.033 56.4082C321.865 55.0801 323.975 53.7812 325.361 52.5117ZM319.268 35.2852C318.33 36.8477 317.5 38.4688 316.777 40.1484C316.465 40.8125 316.143 41.4766 315.811 42.1406C314.463 45.1484 313.193 48.1758 312.002 51.2227C315.029 47.2578 317.236 42.9414 318.623 38.2734C318.662 38.1172 318.701 37.9512 318.74 37.7754C318.994 36.9551 319.17 36.125 319.268 35.2852ZM310.156 60.5098L310.127 60.4805C309.971 60.5195 309.805 60.5586 309.629 60.5977C309.199 60.5586 308.906 60.373 308.75 60.041C308.555 60.6074 308.369 61.1836 308.193 61.7695C307.959 62.5508 307.715 63.332 307.461 64.1133C307.09 65.207 306.768 66.3008 306.494 67.3945C306.221 68.5078 306.074 69.6211 306.055 70.7344C307.324 69.875 308.398 68.8105 309.277 67.541C310.156 66.2715 310.801 64.9238 311.211 63.498C311.348 63.0098 311.406 62.5312 311.387 62.0625C311.328 61.75 311.172 61.4277 310.918 61.0957C310.684 60.7637 310.43 60.5684 310.156 60.5098Z" fill="#21306F"/>
</svg>
