<svg width="242" height="112" viewBox="0 0 242 112" fill="none" xmlns="http://www.w3.org/2000/svg">
<path d="M2.37695 54.0645C2.37695 54.084 2.36719 54.0938 2.34766 54.0938C2.36719 54.0938 2.37695 54.084 2.37695 54.0645ZM22.9434 52.541C23.5488 52.3652 23.8027 52.4336 23.7051 52.7461C23.6074 53.0391 23.2949 53.4785 22.7676 54.0645C22.2402 54.6309 21.6348 55.2266 20.9512 55.8516C20.2676 56.457 19.6523 56.9941 19.1055 57.4629C18.5781 57.9121 18.2559 58.1758 18.1387 58.2539C17.6895 58.5859 17.2305 58.9375 16.7617 59.3086C15.5898 60.2461 14.3691 61.1055 13.0996 61.8867C11.8301 62.6484 10.4531 63.1172 8.96875 63.293C7.85547 63.1562 7.10352 62.6973 6.71289 61.916C6.32227 61.1348 6.15625 60.2266 6.21484 59.1914C6.27344 58.1562 6.41992 57.1797 6.6543 56.2617C5.69727 57.4336 4.62305 58.4883 3.43164 59.4258C2.25977 60.1289 1.33203 60.2656 0.648438 59.8359C-0.0351563 59.4062 -0.464844 58.6934 -0.640625 57.6973C-0.816406 56.7012 -0.728516 55.7051 -0.376953 54.709C-0.0644531 53.5176 0.326172 52.7363 0.794922 52.3652C1.2832 51.9941 1.72266 51.8867 2.11328 52.043C2.52344 52.1992 2.76758 52.4922 2.8457 52.9219C2.94336 53.332 2.74805 53.7422 2.25977 54.1523C2.2793 54.1523 2.29883 54.1523 2.31836 54.1523C2.33789 54.1328 2.34766 54.1133 2.34766 54.0938C2.32812 54.1133 2.30859 54.1426 2.28906 54.1816C1.91797 54.8066 1.5957 55.5293 1.32227 56.3496C1.06836 57.1504 1.08789 57.8926 1.38086 58.5762C1.83008 58.7715 2.34766 58.625 2.93359 58.1367C3.51953 57.6289 4.0957 56.9941 4.66211 56.2324C5.22852 55.4512 5.7168 54.748 6.12695 54.123C6.36133 53.7715 6.54688 53.498 6.68359 53.3027C6.83984 53.0879 6.99609 52.8438 7.15234 52.5703C7.48438 51.9258 7.91406 51.418 8.44141 51.0469C8.79297 50.832 9.125 50.8027 9.4375 50.959C9.76953 51.0957 9.99414 51.3398 10.1113 51.6914C10.2285 52.0234 10.1602 52.3457 9.90625 52.6582C9.82812 52.7559 9.75977 52.8438 9.70117 52.9219C9.68164 52.9219 9.67188 52.9219 9.67188 52.9219L9.70117 52.9512C9.68164 52.9707 9.65234 53 9.61328 53.0391C9.59375 53.0586 9.58398 53.0781 9.58398 53.0977C9.31055 53.4492 9.07617 53.8105 8.88086 54.1816C8.02148 55.8027 7.50391 57.5215 7.32812 59.3379C7.28906 61.4473 7.95312 62.4434 9.32031 62.3262C10.707 62.209 12.3672 61.4863 14.3008 60.1582C16.2539 58.8301 18.0605 57.4043 19.7207 55.8809C21.3809 54.3574 22.4551 53.2441 22.9434 52.541ZM23.6465 69.6797L24.0273 68.7422C24.7305 67.2969 25.1016 65.9688 25.1406 64.7578C25.1406 64.5039 25.1211 64.2598 25.082 64.0254C23.6953 65.0996 22.4844 66.4277 21.4492 68.0098C20.0625 70.0996 19.1152 72.1895 18.6074 74.2793C18.5879 74.2988 18.5781 74.3281 18.5781 74.3672C18.4805 74.9531 18.4121 75.6074 18.373 76.3301C18.334 77.0527 18.4512 77.6875 18.7246 78.2344C21.0488 74.8945 22.6895 72.043 23.6465 69.6797ZM29.7109 61.0957C30.9805 60.9004 32.5137 60.4414 34.3105 59.7188C36.0879 58.9766 37.748 58.166 39.291 57.2871C40.834 56.4082 41.8984 55.7441 42.4844 55.2949C43.5977 54.5137 44.584 53.5957 45.4434 52.541C45.5215 52.4434 45.6191 52.3945 45.7363 52.3945C45.834 52.375 45.9219 52.3945 46 52.4531C46.1953 52.6875 46.1758 52.9512 45.9414 53.2441C45.6875 53.5371 45.3945 53.8203 45.0625 54.0938C44.8281 54.2891 44.6621 54.4453 44.5645 54.5625C43.8223 55.2266 42.5918 56.1055 40.873 57.1992C39.1543 58.293 37.2695 59.3086 35.2188 60.2461C33.168 61.1836 31.293 61.75 29.5938 61.9453C29.4961 61.9648 29.2617 62.0137 28.8906 62.0918C28.5195 62.1699 28.0508 62.3359 27.4844 62.5898C27.6016 62.9023 27.6895 63.2344 27.748 63.5859C27.9043 64.7773 27.7676 66.0176 27.3379 67.3066L27.1914 67.6875C26.8789 68.5273 26.5176 69.3672 26.1074 70.207C25.8145 70.8516 25.5215 71.4277 25.2285 71.9355C23.6855 74.8457 21.8984 77.668 19.8672 80.4023C19.6328 80.6953 19.3301 80.8613 18.959 80.9004C18.6074 80.9199 18.2949 80.8125 18.0215 80.5781C17.5723 80.0898 17.2891 79.2109 17.1719 77.9414C17.0742 76.6523 17.2109 75.3828 17.582 74.1328C18.2656 71.8281 19.418 69.5332 21.0391 67.248C22.1523 65.6855 23.4316 64.3672 24.877 63.293C24.6426 62.707 24.2227 62.1895 23.6172 61.7402C23.0898 61.3301 22.9727 60.8711 23.2656 60.3633C23.5586 59.8555 24.0371 59.2793 24.7012 58.6348C25.3457 58.0098 25.9512 57.3066 26.5176 56.5254C27.1035 55.7441 27.4551 54.8652 27.5723 53.8887C27.6699 52.5996 27.4453 51.75 26.8984 51.3398C26.3516 50.9297 25.502 51.1836 24.3496 52.1016C24.0762 52.3164 23.832 52.541 23.6172 52.7754C23.5391 52.8535 23.4512 52.8828 23.3535 52.8633C23.2559 52.8438 23.1875 52.7949 23.1484 52.7168C23.1094 52.6191 23.1289 52.5215 23.207 52.4238C24.3008 51.0371 25.3164 50.2949 26.2539 50.1973C27.2109 50.0996 27.9434 50.4902 28.4512 51.3691C28.9785 52.248 29.1445 53.4395 28.9492 54.9434C28.7344 55.959 28.3438 56.9258 27.7773 57.8438C27.2305 58.7422 26.625 59.6016 25.9609 60.4219C26.4688 60.8906 26.8691 61.3789 27.1621 61.8867C27.9043 61.4961 28.7539 61.2324 29.7109 61.0957ZM127.621 14.0156C128.031 14.2305 128.305 14.5527 128.441 14.9824C128.598 15.3926 128.588 15.8125 128.412 16.2422C128.412 16.2812 128.402 16.3105 128.383 16.3301C128.383 16.3496 128.373 16.3691 128.354 16.3887C128.354 16.4082 128.354 16.418 128.354 16.418C128.334 16.4375 128.324 16.4473 128.324 16.4473C127.895 17.4824 127.465 18.5176 127.035 19.5527C126.781 20.1191 126.537 20.6855 126.303 21.252C124.838 24.5527 123.295 27.8145 121.674 31.0371C121.361 31.6621 121.039 32.2969 120.707 32.9414C117.68 39.543 114.877 46.2324 112.299 53.0098C109.721 59.7871 107.572 66.6719 105.854 73.6641C104.135 80.6758 103.061 87.8242 102.631 95.1094C102.514 96.0078 102.523 97.1113 102.66 98.4199C102.816 99.748 103.178 100.881 103.744 101.818C104.33 102.775 105.229 103.156 106.439 102.961C106.889 102.902 107.221 103.01 107.436 103.283C107.65 103.576 107.719 103.898 107.641 104.25C107.582 104.602 107.338 104.846 106.908 104.982C105.307 105.295 104.018 105.002 103.041 104.104C102.064 103.225 101.361 102.072 100.932 100.646C100.502 99.2207 100.307 97.8535 100.346 96.5449C100.58 88.6934 101.557 80.9883 103.275 73.4297C104.994 65.8711 107.201 58.4297 109.896 51.1055C105.209 58.0781 100.111 64.7383 94.6035 71.0859C91.6543 74.4648 88.6074 77.7656 85.4629 80.9883C82.3379 84.2305 79.0273 87.2676 75.5312 90.0996C74.0664 91.2129 72.4844 92.1602 70.7852 92.9414C68.4219 94.0742 66.0293 94.4453 63.6074 94.0547C61.2051 93.6836 59.1934 92.4141 57.5723 90.2461C55.9902 87.9023 54.9746 85.334 54.5254 82.541C54.0762 79.748 53.9004 76.9551 53.998 74.1621C54.1543 66.4473 55.1797 58.8496 57.0742 51.3691C58.9883 43.8887 61.6445 36.6816 65.043 29.748C65.375 29.2012 65.7949 28.9375 66.3027 28.957C66.8105 28.957 67.2207 29.1621 67.5332 29.5723C67.8652 29.9629 67.9043 30.4609 67.6504 31.0664C64.4277 37.375 61.8398 43.9375 59.8867 50.7539C57.9531 57.5703 56.7715 64.5137 56.3418 71.584C56.166 74.1621 56.1367 76.7598 56.2539 79.377C56.3906 82.0137 56.9668 84.5332 57.9824 86.9355C59.1348 89.5527 60.7852 91.2227 62.9336 91.9453C65.1016 92.668 67.4746 92.4531 70.0527 91.3008C71.6543 90.5977 73.1582 89.7285 74.5645 88.6934C75.9707 87.6582 77.3281 86.5645 78.6367 85.4121C92.4648 73.2246 103.91 59.0938 112.973 43.0195C116.41 34.582 120.014 26.252 123.783 18.0293C124.252 16.9941 124.711 15.959 125.16 14.9238C125.395 14.4355 125.736 14.1035 126.186 13.9277C126.654 13.752 127.133 13.7812 127.621 14.0156ZM152.318 52.541C152.436 52.4434 152.543 52.4238 152.641 52.4824C152.758 52.5215 152.836 52.5996 152.875 52.7168C152.914 52.8145 152.885 52.9121 152.787 53.0098C150.111 55.3926 146.996 56.8379 143.441 57.3457C142.992 57.4043 142.533 57.4238 142.064 57.4043C141.596 57.3848 141.166 57.2383 140.775 56.9648C140.053 56.3789 139.477 55.6855 139.047 54.8848C138.969 54.7676 138.881 54.6309 138.783 54.4746C138.588 54.1426 138.363 53.8203 138.109 53.5078C137.875 53.1953 137.611 53.0098 137.318 52.9512C136.654 53.3613 136.088 53.9277 135.619 54.6504C135.502 54.8262 135.385 54.9922 135.268 55.1484C134.955 55.5586 134.652 55.9785 134.359 56.4082C133.852 57.1699 133.305 57.9219 132.719 58.6641C132.211 59.3672 131.693 59.709 131.166 59.6895C130.639 59.6504 130.229 59.1914 129.936 58.3125C129.486 56.2422 129.311 54.1523 129.408 52.043C127.904 54.0156 126.439 56.0176 125.014 58.0488C124.369 58.9277 123.734 59.8066 123.109 60.6855C123.012 60.8418 122.904 60.9883 122.787 61.125C122.279 61.8477 121.752 62.5605 121.205 63.2637C121.166 63.3223 121.127 63.3711 121.088 63.4102C120.971 63.5859 120.805 63.7324 120.59 63.8496C120.395 63.9277 120.219 63.9082 120.062 63.791C119.906 63.6738 119.838 63.5078 119.857 63.293C119.936 62.7461 120.014 62.1895 120.092 61.623C120.17 61.0371 120.258 60.4512 120.355 59.8652C120.531 58.9277 120.736 57.9902 120.971 57.0527C121.049 56.8184 121.117 56.5742 121.176 56.3203C121.215 56.125 121.264 55.9199 121.322 55.7051C121.596 54.6699 121.859 53.7129 122.113 52.834C122.289 52.3262 122.582 52.043 122.992 51.9844C123.402 51.9258 123.764 52.0332 124.076 52.3066C124.389 52.5801 124.477 52.9805 124.34 53.5078C123.852 54.9531 123.324 56.4375 122.758 57.9609C122.68 58.1953 122.602 58.4199 122.523 58.6348C122.328 59.2598 122.084 59.8848 121.791 60.5098C121.771 60.5684 121.752 60.627 121.732 60.6855C121.869 60.4512 122.006 60.2266 122.143 60.0117C123.92 57.1406 125.697 54.2109 127.475 51.2227C127.572 51.0469 127.67 50.8711 127.768 50.6953C127.885 50.5 128.012 50.2949 128.148 50.0801C128.676 49.1816 129.203 48.332 129.73 47.5312C130.043 47.1406 130.395 46.9551 130.785 46.9746C131.176 46.9746 131.508 47.1309 131.781 47.4434C132.055 47.7363 132.162 48.1172 132.104 48.5859C131.752 49.4844 131.537 50.7148 131.459 52.2773C131.381 53.8203 131.469 55.2168 131.723 56.4668C132.133 56.0371 132.523 55.6074 132.895 55.1777C133.598 54.3379 134.369 53.5371 135.209 52.7754C135.873 52.1504 136.527 51.8086 137.172 51.75C137.816 51.6719 138.363 52.0918 138.812 53.0098C138.949 53.2637 139.105 53.5371 139.281 53.8301C139.613 54.5137 140.014 55.168 140.482 55.793C140.951 56.3984 141.508 56.7305 142.152 56.7891C143.48 56.8086 144.779 56.6133 146.049 56.2031C147.338 55.793 148.549 55.2559 149.682 54.5918C150.658 54.0059 151.537 53.3223 152.318 52.541ZM172.504 52.5996C172.582 52.4629 172.689 52.4043 172.826 52.4238C172.963 52.4434 173.07 52.5117 173.148 52.6289C173.227 52.7266 173.227 52.8438 173.148 52.9805C172.582 53.7812 171.928 54.4941 171.186 55.1191C170.443 55.7246 169.672 56.3008 168.871 56.8477C168.734 56.9453 168.607 57.0332 168.49 57.1113C166.557 58.4395 164.691 59.4648 162.895 60.1875C161.098 60.8906 159.535 61.0273 158.207 60.5977C156.898 60.1484 155.98 58.8398 155.453 56.6719C154.164 58.5859 152.777 60.4316 151.293 62.209C150.512 62.9902 149.711 63.2148 148.891 62.8828C148.051 62.5312 147.719 61.7891 147.895 60.6562C148.695 57.1016 150.365 54.0156 152.904 51.3984C153.725 50.5586 154.73 49.8848 155.922 49.377C156.391 49.2012 156.771 49.2598 157.064 49.5527C157.377 49.8457 157.523 50.207 157.504 50.6367C157.484 51.0469 157.24 51.3496 156.771 51.5449C155.307 52.2871 154.076 53.3418 153.08 54.709C152.104 56.0566 151.342 57.5215 150.795 59.1035C152.396 57.0332 153.891 54.8848 155.277 52.6582C155.492 52.3262 155.775 52.1504 156.127 52.1309C156.498 52.1113 156.811 52.2188 157.064 52.4531C157.338 52.6875 157.465 53 157.445 53.3906C157.055 54.582 156.947 55.8125 157.123 57.082C157.318 58.332 158.061 59.2109 159.35 59.7188C161.283 59.6992 163.236 59.1523 165.209 58.0781C167.182 57.0039 168.939 55.8711 170.482 54.6797C171.283 54.0938 171.957 53.4004 172.504 52.5996ZM175.17 52.2188C175.189 52.2188 175.199 52.209 175.199 52.1895C175.199 52.209 175.189 52.2188 175.17 52.2188ZM181.645 52.3945C180.316 54.4648 179.076 56.3398 177.924 58.0195C176.947 59.2695 175.863 60.3633 174.672 61.3008C173.5 62.0039 172.572 62.1406 171.889 61.7109C171.205 61.2812 170.775 60.5684 170.6 59.5723C170.424 58.5762 170.531 57.3457 170.922 55.8809C171.625 53.9082 172.221 52.7363 172.709 52.3652C173.178 51.9941 173.607 51.8867 173.998 52.043C174.408 52.1992 174.662 52.4922 174.76 52.9219C174.838 53.332 174.633 53.7422 174.145 54.1523H174.203L174.174 54.1816C173.471 55.5879 172.924 56.8281 172.533 57.9023C172.299 58.918 172.328 59.7676 172.621 60.4512C173.07 60.6465 173.588 60.4902 174.174 59.9824C174.76 59.4941 175.336 58.8691 175.902 58.1074C176.469 57.3262 176.957 56.623 177.367 55.998C177.602 55.6465 177.787 55.373 177.924 55.1777C178.08 54.9629 178.236 54.7188 178.393 54.4453C179.721 52.4531 180.99 50.8613 182.201 49.6699C182.436 49.4746 182.65 49.4453 182.846 49.582C183.061 49.7188 183.236 49.9434 183.373 50.2559C183.49 50.6465 183.344 51.5352 182.934 52.9219C182.719 53.8203 182.572 54.6699 182.494 55.4707C182.416 56.252 182.543 56.9453 182.875 57.5508C183.734 58.3516 184.74 58.7129 185.893 58.6348C187.064 58.5566 188.236 58.2637 189.408 57.7559C190.6 57.248 191.635 56.7402 192.514 56.2324C192.65 56.1543 192.797 56.0664 192.953 55.9688C194.633 55.0508 196.117 53.918 197.406 52.5703C197.504 52.4531 197.611 52.4141 197.729 52.4531C197.846 52.4727 197.934 52.5312 197.992 52.6289C198.051 52.7266 198.041 52.834 197.963 52.9512C197.768 53.1855 197.562 53.3906 197.348 53.5664C196.156 54.4844 194.623 55.5195 192.748 56.6719C190.893 57.8242 188.998 58.6445 187.064 59.1328C185.15 59.6016 183.51 59.2793 182.143 58.166C181.635 57.6387 181.342 56.7891 181.264 55.6172C181.186 54.6602 181.312 53.5859 181.645 52.3945ZM199.193 54.0645C199.193 54.084 199.184 54.0938 199.164 54.0938C199.184 54.0938 199.193 54.084 199.193 54.0645ZM219.76 52.541C220.365 52.3652 220.619 52.4336 220.521 52.7461C220.424 53.0391 220.111 53.4785 219.584 54.0645C219.057 54.6309 218.451 55.2266 217.768 55.8516C217.084 56.457 216.469 56.9941 215.922 57.4629C215.395 57.9121 215.072 58.1758 214.955 58.2539C214.506 58.5859 214.047 58.9375 213.578 59.3086C212.406 60.2461 211.186 61.1055 209.916 61.8867C208.646 62.6484 207.27 63.1172 205.785 63.293C204.672 63.1562 203.92 62.6973 203.529 61.916C203.139 61.1348 202.973 60.2266 203.031 59.1914C203.09 58.1562 203.236 57.1797 203.471 56.2617C202.514 57.4336 201.439 58.4883 200.248 59.4258C199.076 60.1289 198.148 60.2656 197.465 59.8359C196.781 59.4062 196.352 58.6934 196.176 57.6973C196 56.7012 196.088 55.7051 196.439 54.709C196.752 53.5176 197.143 52.7363 197.611 52.3652C198.1 51.9941 198.539 51.8867 198.93 52.043C199.34 52.1992 199.584 52.4922 199.662 52.9219C199.76 53.332 199.564 53.7422 199.076 54.1523C199.096 54.1523 199.115 54.1523 199.135 54.1523C199.154 54.1328 199.164 54.1133 199.164 54.0938C199.145 54.1133 199.125 54.1426 199.105 54.1816C198.734 54.8066 198.412 55.5293 198.139 56.3496C197.885 57.1504 197.904 57.8926 198.197 58.5762C198.646 58.7715 199.164 58.625 199.75 58.1367C200.336 57.6289 200.912 56.9941 201.479 56.2324C202.045 55.4512 202.533 54.748 202.943 54.123C203.178 53.7715 203.363 53.498 203.5 53.3027C203.656 53.0879 203.812 52.8438 203.969 52.5703C204.301 51.9258 204.73 51.418 205.258 51.0469C205.609 50.832 205.941 50.8027 206.254 50.959C206.586 51.0957 206.811 51.3398 206.928 51.6914C207.045 52.0234 206.977 52.3457 206.723 52.6582C206.645 52.7559 206.576 52.8438 206.518 52.9219C206.498 52.9219 206.488 52.9219 206.488 52.9219L206.518 52.9512C206.498 52.9707 206.469 53 206.43 53.0391C206.41 53.0586 206.4 53.0781 206.4 53.0977C206.127 53.4492 205.893 53.8105 205.697 54.1816C204.838 55.8027 204.32 57.5215 204.145 59.3379C204.105 61.4473 204.77 62.4434 206.137 62.3262C207.523 62.209 209.184 61.4863 211.117 60.1582C213.07 58.8301 214.877 57.4043 216.537 55.8809C218.197 54.3574 219.271 53.2441 219.76 52.541ZM221.518 54.0645C221.518 54.084 221.508 54.0938 221.488 54.0938C221.508 54.0938 221.518 54.084 221.518 54.0645ZM242.084 52.541C242.689 52.3652 242.943 52.4336 242.846 52.7461C242.748 53.0391 242.436 53.4785 241.908 54.0645C241.381 54.6309 240.775 55.2266 240.092 55.8516C239.408 56.457 238.793 56.9941 238.246 57.4629C237.719 57.9121 237.396 58.1758 237.279 58.2539C236.83 58.5859 236.371 58.9375 235.902 59.3086C234.73 60.2461 233.51 61.1055 232.24 61.8867C230.971 62.6484 229.594 63.1172 228.109 63.293C226.996 63.1562 226.244 62.6973 225.854 61.916C225.463 61.1348 225.297 60.2266 225.355 59.1914C225.414 58.1562 225.561 57.1797 225.795 56.2617C224.838 57.4336 223.764 58.4883 222.572 59.4258C221.4 60.1289 220.473 60.2656 219.789 59.8359C219.105 59.4062 218.676 58.6934 218.5 57.6973C218.324 56.7012 218.412 55.7051 218.764 54.709C219.076 53.5176 219.467 52.7363 219.936 52.3652C220.424 51.9941 220.863 51.8867 221.254 52.043C221.664 52.1992 221.908 52.4922 221.986 52.9219C222.084 53.332 221.889 53.7422 221.4 54.1523C221.42 54.1523 221.439 54.1523 221.459 54.1523C221.479 54.1328 221.488 54.1133 221.488 54.0938C221.469 54.1133 221.449 54.1426 221.43 54.1816C221.059 54.8066 220.736 55.5293 220.463 56.3496C220.209 57.1504 220.229 57.8926 220.521 58.5762C220.971 58.7715 221.488 58.625 222.074 58.1367C222.66 57.6289 223.236 56.9941 223.803 56.2324C224.369 55.4512 224.857 54.748 225.268 54.123C225.502 53.7715 225.688 53.498 225.824 53.3027C225.98 53.0879 226.137 52.8438 226.293 52.5703C226.625 51.9258 227.055 51.418 227.582 51.0469C227.934 50.832 228.266 50.8027 228.578 50.959C228.91 51.0957 229.135 51.3398 229.252 51.6914C229.369 52.0234 229.301 52.3457 229.047 52.6582C228.969 52.7559 228.9 52.8438 228.842 52.9219C228.822 52.9219 228.812 52.9219 228.812 52.9219L228.842 52.9512C228.822 52.9707 228.793 53 228.754 53.0391C228.734 53.0586 228.725 53.0781 228.725 53.0977C228.451 53.4492 228.217 53.8105 228.021 54.1816C227.162 55.8027 226.645 57.5215 226.469 59.3379C226.43 61.4473 227.094 62.4434 228.461 62.3262C229.848 62.209 231.508 61.4863 233.441 60.1582C235.395 58.8301 237.201 57.4043 238.861 55.8809C240.521 54.3574 241.596 53.2441 242.084 52.541Z" fill="#21306F"/>
</svg>
