<svg width="338" height="112" viewBox="0 0 338 112" fill="none" xmlns="http://www.w3.org/2000/svg">
<path d="M57.4961 67.6582C57.6328 66.8574 57.9844 66.3887 58.5508 66.252C59.1367 66.1152 59.6543 66.2422 60.1035 66.6328C60.5527 67.043 60.6406 67.6289 60.3672 68.3906C58.2773 71.8867 55.4746 75.3828 51.959 78.8789C48.4629 82.375 44.5469 85.5586 40.2109 88.4297C35.8945 91.3008 31.4609 93.5371 26.9102 95.1387C22.3594 96.7598 17.9844 97.4238 13.7852 97.1309C11.7539 96.9551 9.79102 96.4863 7.89648 95.7246C5.5332 94.7676 3.85352 93.2441 2.85742 91.1543C1.86133 89.0645 1.31445 86.8184 1.2168 84.416C0.982422 80.1582 1.40234 75.9688 2.47656 71.8477C3.55078 67.7461 5.05469 63.8203 6.98828 60.0703C10.8164 52.6484 15.3672 45.6855 20.6406 39.1816C25.9336 32.6777 31.9785 26.9746 38.7754 22.0723C40.7285 20.7051 42.8574 19.4844 45.1621 18.4102C47.4863 17.3359 49.8691 16.9551 52.3105 17.2676C53.2285 17.4434 54.0586 17.834 54.8008 18.4395C55.5625 19.0254 56.1191 19.7578 56.4707 20.6367C56.8223 21.7305 56.9395 22.8437 56.8223 23.9766C56.7246 25.1094 56.5293 26.2129 56.2363 27.2871C54.0684 35.5293 50.2305 42.9414 44.7227 49.5234C44.4492 49.8359 44.1172 50.0117 43.7266 50.0508C43.3359 50.0703 42.9746 49.9531 42.6426 49.6992C42.3105 49.4062 42.1348 49.0547 42.1152 48.6445C42.0957 48.2344 42.2422 47.8633 42.5547 47.5312C45.6797 44.3086 48.3164 40.6855 50.4648 36.6621C52.6328 32.6387 54.1172 28.4004 54.918 23.9473C55.0156 23.0488 54.9277 22.1699 54.6543 21.3105C54.0488 20.1191 53.1797 19.416 52.0469 19.2012C50.9336 18.9863 49.752 19.0645 48.502 19.4355C47.252 19.7871 46.1387 20.2266 45.1621 20.7539C41.334 22.9023 37.6328 25.6367 34.0586 28.957C30.4844 32.2773 27.1348 35.8516 24.0098 39.6797C20.8848 43.4883 18.082 47.1992 15.6016 50.8125C13.1992 54.3867 10.9922 58.1367 8.98047 62.0625C6.96875 65.9883 5.45508 70.0508 4.43945 74.25C3.44336 78.4688 3.24805 82.7754 3.85352 87.1699C4.06836 88.4004 4.46875 89.5527 5.05469 90.627C5.66016 91.7207 6.5 92.5996 7.57422 93.2637C8.70703 93.8496 9.87891 94.2988 11.0898 94.6113C14.6445 95.4316 18.2383 95.4512 21.8711 94.6699C25.5234 93.8887 29.0488 92.6387 32.4473 90.9199C35.8652 89.2012 39.0098 87.3262 41.8809 85.2949C43.5801 84.0645 45.5918 82.4629 47.916 80.4902C50.2598 78.5176 52.3594 76.3984 54.2148 74.1328C56.0898 71.8672 57.1836 69.709 57.4961 67.6582ZM87.6133 57.2578C87.75 57.043 87.916 56.9453 88.1113 56.9648C88.3066 56.9844 88.4531 57.0723 88.5508 57.2285C88.668 57.3848 88.6582 57.5605 88.5215 57.7559C87.5254 59.2793 86.0605 61.1641 84.127 63.4102C82.2129 65.6562 80.0742 67.8242 77.7109 69.9141C75.3477 72.0039 72.9941 73.5762 70.6504 74.6309C68.3262 75.6855 66.2461 75.7637 64.4102 74.8652C63.0039 73.7129 62.3398 71.6621 62.418 68.7129C62.4961 65.7637 63.0625 62.3457 64.1172 58.459C65.1719 54.5723 66.4609 50.6465 67.9844 46.6816C69.5273 42.7168 71.041 39.1426 72.5254 35.959C74.0293 32.7754 75.2695 30.4121 76.2461 28.8691C77.1445 27.3262 78.1406 25.8223 79.2344 24.3574C79.4297 24.123 79.6543 23.9766 79.9082 23.918C80.1816 23.8398 80.4453 23.8594 80.6992 23.9766C81.168 24.2891 81.334 24.7285 81.1973 25.2949C81.0801 25.8418 80.8652 26.4082 80.5527 26.9941C80.377 27.3652 80.2402 27.6973 80.1426 27.9902C79.5371 29.2793 78.9316 30.5781 78.3262 31.8867C77.252 34.2891 76.1191 36.6719 74.9277 39.0352C73.7559 41.3789 72.418 43.6348 70.9141 45.8027C69.332 50.0215 67.9258 54.25 66.6953 58.4883C66.6367 58.6445 66.5879 58.8203 66.5488 59.0156C66.1973 60.3242 65.8066 61.9941 65.377 64.0254C64.9473 66.0762 64.7227 68.0195 64.7031 69.8555C64.6641 71.7109 65.0645 72.9902 65.9043 73.6934C67.291 74.2012 68.8633 74.0645 70.6211 73.2832C72.3789 72.5215 74.1562 71.4082 75.9531 69.9434C77.7695 68.498 79.4297 66.9844 80.9336 65.4023C82.457 63.8398 83.668 62.5215 84.5664 61.4473C85.6797 60.1191 86.6953 58.7227 87.6133 57.2578ZM111.051 52.5996C111.129 52.4629 111.236 52.4043 111.373 52.4238C111.51 52.4434 111.617 52.5117 111.695 52.6289C111.773 52.7266 111.773 52.8438 111.695 52.9805C111.129 53.7812 110.475 54.4941 109.732 55.1191C108.99 55.7246 108.219 56.3008 107.418 56.8477C107.281 56.9453 107.154 57.0332 107.037 57.1113C105.104 58.4395 103.238 59.4648 101.441 60.1875C99.6445 60.8906 98.082 61.0273 96.7539 60.5977C95.4453 60.1484 94.5273 58.8398 94 56.6719C92.7109 58.5859 91.3242 60.4316 89.8398 62.209C89.0586 62.9902 88.2578 63.2148 87.4375 62.8828C86.5977 62.5312 86.2656 61.7891 86.4414 60.6562C87.2422 57.1016 88.9121 54.0156 91.4512 51.3984C92.2715 50.5586 93.2773 49.8848 94.4688 49.377C94.9375 49.2012 95.3184 49.2598 95.6113 49.5527C95.9238 49.8457 96.0703 50.207 96.0508 50.6367C96.0312 51.0469 95.7871 51.3496 95.3184 51.5449C93.8535 52.2871 92.623 53.3418 91.627 54.709C90.6504 56.0566 89.8887 57.5215 89.3418 59.1035C90.9434 57.0332 92.4375 54.8848 93.8242 52.6582C94.0391 52.3262 94.3223 52.1504 94.6738 52.1309C95.0449 52.1113 95.3574 52.2188 95.6113 52.4531C95.8848 52.6875 96.0117 53 95.9922 53.3906C95.6016 54.582 95.4941 55.8125 95.6699 57.082C95.8652 58.332 96.6074 59.2109 97.8965 59.7188C99.8301 59.6992 101.783 59.1523 103.756 58.0781C105.729 57.0039 107.486 55.8711 109.029 54.6797C109.83 54.0938 110.504 53.4004 111.051 52.5996ZM126.549 52.541C127.037 52.4824 127.203 52.5898 127.047 52.8633C126.91 53.1172 126.568 53.4688 126.021 53.918C125.475 54.3672 124.869 54.8359 124.205 55.3242C123.561 55.793 122.975 56.2031 122.447 56.5547C121.92 56.8867 121.598 57.082 121.48 57.1406C120.016 58.0586 118.512 58.918 116.969 59.7188C115.426 60.5 113.805 61.1152 112.105 61.5645C110.719 61.9746 109.762 61.7402 109.234 60.8613C108.707 59.9824 108.551 58.9277 108.766 57.6973C108.98 55.7637 109.654 54.0059 110.787 52.4238C111.119 52.0527 111.48 51.9258 111.871 52.043C112.281 52.1406 112.584 52.375 112.779 52.7461C112.975 53.0977 112.926 53.4785 112.633 53.8887C111.988 54.8066 111.451 55.832 111.021 56.9648C110.592 58.0781 110.455 59.1914 110.611 60.3047C111.021 60.6953 111.588 60.8223 112.311 60.6855C113.033 60.5488 113.717 60.3438 114.361 60.0703C114.674 59.9531 114.947 59.8652 115.182 59.8066C117.271 58.9473 119.283 57.9219 121.217 56.7305C123.17 55.5391 124.947 54.1426 126.549 52.541ZM112.633 49.6406C111.91 49.543 111.529 49.2207 111.49 48.6738C111.471 48.127 111.666 47.6484 112.076 47.2383C112.506 46.8281 113.014 46.7988 113.6 47.1504C113.951 47.4043 114.107 47.7266 114.068 48.1172C114.029 48.4883 113.873 48.8301 113.6 49.1426C113.326 49.4551 113.004 49.6211 112.633 49.6406ZM136.188 53.8301C136.324 53.9277 136.49 53.9863 136.686 54.0059C136.9 54.0254 137.125 54.0352 137.359 54.0352C137.613 54.0156 137.828 54.0254 138.004 54.0645C138.199 54.084 138.307 54.1719 138.326 54.3281C138.248 54.5625 138.023 54.7285 137.652 54.8262C137.301 54.9043 136.92 54.9336 136.51 54.9141C136.1 54.8945 135.777 54.8359 135.543 54.7383C134.918 54.4258 134.479 53.9961 134.225 53.4492C133.971 52.8828 133.854 52.2676 133.873 51.6035C131.9 53.3027 130.191 55.2559 128.746 57.4629C127.32 59.6699 126.1 61.9648 125.084 64.3477C125.025 64.5039 124.928 64.6211 124.791 64.6992C124.635 64.7773 124.469 64.7773 124.293 64.6992C124.137 64.6211 124.039 64.4941 124 64.3184C123.941 64.1621 123.912 63.9961 123.912 63.8203C123.912 63.6445 123.893 63.4883 123.854 63.3516C123.619 59.5039 124.469 55.9199 126.402 52.5996C126.676 52.209 127.008 52.0332 127.398 52.0723C127.789 52.1113 128.111 52.2871 128.365 52.5996C128.619 52.9121 128.648 53.2832 128.453 53.7129C127.945 54.7285 127.535 55.7637 127.223 56.8184C129.156 53.2637 131.744 50.2852 134.986 47.8828C135.338 47.6484 135.68 47.5996 136.012 47.7363C136.363 47.873 136.607 48.1074 136.744 48.4395C136.9 48.7715 136.852 49.1133 136.598 49.4648C136.188 50.0898 135.855 50.8418 135.602 51.7207C135.348 52.5996 135.543 53.3027 136.188 53.8301ZM161.324 52.4531C161.52 52.6875 161.49 52.9512 161.236 53.2441C161.002 53.5371 160.719 53.8203 160.387 54.0938C160.152 54.2891 159.986 54.4453 159.889 54.5625C159.146 55.2266 157.916 56.1055 156.197 57.1992C154.479 58.293 152.594 59.3086 150.543 60.2461C148.492 61.1836 146.617 61.75 144.918 61.9453C143.219 62.1406 142.027 61.6816 141.344 60.5684C140.699 58.9277 140.562 57.2188 140.934 55.4414C141.285 53.6445 141.988 52.0527 143.043 50.666C143.668 49.9238 144.42 49.5137 145.299 49.4355C146.178 49.3574 146.725 49.8848 146.939 51.0176C147.076 51.584 146.91 52.209 146.441 52.8926C145.973 53.5566 145.387 54.1719 144.684 54.7383C144 55.3047 143.404 55.6953 142.896 55.9102C142.662 57.1406 142.594 58.1855 142.691 59.0449C142.848 60.2949 143.59 60.9004 144.918 60.8613C146.266 60.8223 147.828 60.4414 149.605 59.7188C151.402 58.9766 153.072 58.166 154.615 57.2871C156.158 56.4082 157.223 55.7441 157.809 55.2949C158.922 54.5137 159.908 53.5957 160.768 52.541C160.846 52.4434 160.934 52.3945 161.031 52.3945C161.148 52.375 161.246 52.3945 161.324 52.4531ZM145.123 51.6328C144.244 52.2383 143.609 53.2344 143.219 54.6211C143.707 54.1719 144.156 53.6738 144.566 53.127C144.977 52.5605 145.162 52.0625 145.123 51.6328ZM225.836 68.6836C229.293 70.793 231.412 72.9805 232.193 75.2461C232.994 77.5117 232.623 79.6699 231.08 81.7207C229.557 83.7715 227.047 85.5293 223.551 86.9941C218.258 88.9277 212.174 90.2754 205.299 91.0371C198.443 91.8184 191.48 91.9258 184.41 91.3594C184.117 92.5312 183.824 93.7129 183.531 94.9043C183.355 95.6074 183.189 96.3203 183.033 97.043C182.506 99.4648 181.803 101.848 180.924 104.191C180.846 104.387 180.709 104.523 180.514 104.602C180.338 104.68 180.152 104.68 179.957 104.602C179.645 104.465 179.488 104.23 179.488 103.898C179.469 103.84 179.459 103.771 179.459 103.693C178.756 99.3184 178.121 94.9336 177.555 90.5391C169.664 89.3281 162.896 87.0625 157.252 83.7422C156.979 83.5664 156.812 83.332 156.754 83.0391C156.695 82.7461 156.744 82.4629 156.9 82.1895C157.076 81.916 157.32 81.75 157.633 81.6914C157.945 81.6328 158.238 81.6914 158.512 81.8672C160.484 83.2539 162.604 84.4258 164.869 85.3828C168.678 86.9062 172.848 88.0879 177.379 88.9277C177.125 86.7402 176.92 84.5527 176.764 82.3652C176.158 75.0605 176.461 67.7949 177.672 60.5684C178.902 53.3223 181.363 46.4961 185.055 40.0898C187.867 35.1875 191.393 30.7637 195.631 26.8184C199.889 22.8535 204.732 20.0117 210.162 18.293C211.451 15.3437 212.73 12.4043 214 9.47461C214.312 8.9082 214.723 8.625 215.23 8.625C215.738 8.60547 216.158 8.79102 216.49 9.18164C216.822 9.57227 216.861 10.0801 216.607 10.7051C215.436 12.9707 214.283 15.2559 213.15 17.5605C213.678 17.4434 214.205 17.3457 214.732 17.2676C217.135 16.9551 219.547 17.1016 221.969 17.707C224.391 18.3125 226.393 19.6016 227.975 21.5742C229.166 23.1758 229.898 24.9531 230.172 26.9062C230.445 28.8594 230.465 30.8027 230.23 32.7363C229.586 37.1113 227.76 41.125 224.752 44.7773C221.764 48.4297 218.189 51.6816 214.029 54.5332C209.889 57.3848 205.758 59.8066 201.637 61.7988C202.477 61.8184 203.316 61.8672 204.156 61.9453C207.965 62.3555 211.695 63.0977 215.348 64.1719C219.02 65.2656 222.516 66.7695 225.836 68.6836ZM186.461 40.8809C183.551 45.7832 181.451 50.9004 180.162 56.2324C178.873 61.5645 178.18 67.0039 178.082 72.5508C177.984 78.0977 178.258 83.6543 178.902 89.2207C180.113 89.416 181.324 89.582 182.535 89.7188C185.406 79.9336 188.697 70.2949 192.408 60.8027C196.119 51.291 199.977 41.8477 203.98 32.4727C205.699 28.4883 207.438 24.5039 209.195 20.5195C204.293 22.2969 199.928 25.0215 196.1 28.6934C192.271 32.3652 189.059 36.4277 186.461 40.8809ZM181.275 94.3477C181.549 93.2734 181.842 92.209 182.154 91.1543C181.119 91.0371 180.104 90.9102 179.107 90.7734C179.42 93.4297 179.791 96.0566 180.221 98.6543C180.494 97.3848 180.797 96.1055 181.129 94.8164C181.168 94.6602 181.217 94.5039 181.275 94.3477ZM229.674 77.8242C229.752 76.8867 229.518 76.0273 228.971 75.2461C228.443 74.4648 227.838 73.7617 227.154 73.1367C224.986 71.2422 222.203 69.4844 218.805 67.8633C215.426 66.2422 211.92 64.9922 208.287 64.1133C204.674 63.2539 201.432 63 198.561 63.3516C198.346 63.4102 198.131 63.4688 197.916 63.5273C197.643 63.6445 197.379 63.7617 197.125 63.8789L197.096 63.8496C197.037 63.8887 196.969 63.9277 196.891 63.9668C196.578 64.0254 196.295 63.9766 196.041 63.8203C195.787 63.6641 195.621 63.4395 195.543 63.1465C195.465 62.8535 195.484 62.5898 195.602 62.3555C195.738 62.1211 195.934 61.9453 196.188 61.8281C199.41 60.2852 202.555 58.5957 205.621 56.7598C208.59 55.002 211.676 52.9219 214.879 50.5195C218.102 48.0977 220.914 45.3828 223.316 42.375C225.738 39.3477 227.252 36.0371 227.857 32.4434C228.521 27.7168 227.721 24.2109 225.455 21.9258C223.189 19.6406 219.684 18.7129 214.938 19.1426C213.961 19.2793 213.004 19.4551 212.066 19.6699C206.441 30.959 201.285 42.4531 196.598 54.1523C191.91 65.832 187.965 77.7754 184.762 89.9824C191.441 90.6074 198.072 90.4902 204.654 89.6309C211.256 88.791 217.213 87.1602 222.525 84.7383C224.049 83.9961 225.514 83.0781 226.92 81.9844C228.346 80.8906 229.264 79.5039 229.674 77.8242ZM272.506 52.3652C272.662 52.3848 272.76 52.4629 272.799 52.5996C272.857 52.7363 272.848 52.8633 272.77 52.9805C272.711 53.0977 272.594 53.1562 272.418 53.1562C271.52 53 270.602 52.9023 269.664 52.8633C266.91 52.707 264.146 52.668 261.373 52.7461C260.826 52.7656 260.27 52.7852 259.703 52.8047C258.961 54.7773 258.238 56.7598 257.535 58.752C257.555 58.9473 257.574 59.1426 257.594 59.3379C257.711 61.0566 257.438 62.7949 256.773 64.5527C256.129 66.3301 255.182 67.8242 253.932 69.0352C253.697 69.2305 253.443 69.2598 253.17 69.123C252.916 69.0059 252.779 68.791 252.76 68.4785C252.76 68.4785 252.76 68.4688 252.76 68.4492C252.76 68.4297 252.76 68.4004 252.76 68.3613C252.76 68.3223 252.76 68.2832 252.76 68.2441C252.76 68.2051 252.76 68.1758 252.76 68.1562C252.76 68.1367 252.76 68.127 252.76 68.127C253.111 66.6816 253.502 65.2656 253.932 63.8789C254.674 61.4766 255.455 59.0938 256.275 56.7305C255.846 55.9297 255.221 55.2852 254.4 54.7969C253.365 56.2617 252.203 57.5703 250.914 58.7227C249.625 59.8555 248.219 60.5879 246.695 60.9199C245.445 61.1348 244.303 60.9395 243.268 60.334C242.232 59.7285 241.51 58.8301 241.1 57.6387C240.982 57.3262 240.885 56.9941 240.807 56.6426C240.221 57.502 239.615 58.3516 238.99 59.1914C238.365 60.0508 237.711 60.9102 237.027 61.7695C236.559 62.4141 235.924 62.8145 235.123 62.9707C234.303 63.0098 233.746 62.7266 233.453 62.1211C233.16 61.4961 233.131 60.832 233.365 60.1289C234.225 56.7695 235.865 53.8398 238.287 51.3398C239.107 50.5 240.104 49.8262 241.275 49.3184C241.783 49.1621 242.184 49.2305 242.477 49.5234C242.77 49.7969 242.906 50.1387 242.887 50.5488C242.867 50.959 242.623 51.2715 242.154 51.4863C240.729 52.1699 239.508 53.2148 238.492 54.6211C237.496 56.0078 236.715 57.4922 236.148 59.0742C237.75 56.9844 239.254 54.8359 240.66 52.6289C240.895 52.2773 241.178 52.0918 241.51 52.0723C241.861 52.0527 242.174 52.1602 242.447 52.3945C242.721 52.6289 242.838 52.9414 242.799 53.332C242.604 54.1328 242.467 54.9238 242.389 55.7051C242.33 56.4668 242.467 57.2188 242.799 57.9609C243.424 59.0547 244.215 59.6602 245.172 59.7773C246.148 59.8945 247.135 59.7188 248.131 59.25C249.127 58.7812 249.986 58.1855 250.709 57.4629C251.686 56.5254 252.613 55.4902 253.492 54.3574C253.258 54.2793 253.023 54.2109 252.789 54.1523C251.988 53.9375 251.178 53.8301 250.357 53.8301C250.221 53.8301 250.113 53.7812 250.035 53.6836C249.977 53.5664 249.967 53.4492 250.006 53.332C250.045 53.2148 250.133 53.1367 250.27 53.0977C251.188 52.8828 252.115 52.7168 253.053 52.5996C253.678 52.541 254.293 52.4824 254.898 52.4238C256.578 49.9434 258.062 47.3164 259.352 44.543C260.641 41.7695 261.744 39.0547 262.662 36.3984C262.779 36.0078 262.877 35.6074 262.955 35.1973C262.955 35.1973 262.965 35.1875 262.984 35.168C262.984 35.168 262.984 35.1582 262.984 35.1387C263.062 34.6309 263.297 34.3086 263.688 34.1719C264.078 34.0352 264.449 34.0742 264.801 34.2891C265.152 34.4844 265.318 34.8457 265.299 35.373C264.889 37.8145 264.244 40.1973 263.365 42.5215C263.209 43.0098 263.053 43.498 262.896 43.9863C261.959 46.7012 260.982 49.416 259.967 52.1309C264.146 51.9941 268.326 52.0723 272.506 52.3652ZM257.594 49.7578C257.125 50.5586 256.607 51.418 256.041 52.3359C256.627 52.2969 257.223 52.2578 257.828 52.2188C258.902 49.1523 259.938 46.0762 260.934 42.9902C259.918 45.2949 258.805 47.5508 257.594 49.7578ZM252.555 53.4199C253.004 53.5371 253.434 53.6934 253.844 53.8887C254.02 53.6543 254.195 53.4102 254.371 53.1562C253.766 53.2344 253.16 53.3223 252.555 53.4199ZM256.891 61.8281C257.027 61.2227 257.096 60.6172 257.096 60.0117C256.354 62.1016 255.65 64.2012 254.986 66.3105C255.494 65.666 255.904 64.9336 256.217 64.1133C256.529 63.3125 256.754 62.5508 256.891 61.8281ZM256.51 56.0566C256.861 55.002 257.223 53.9473 257.594 52.8926C256.93 52.9316 256.256 52.9805 255.572 53.0391C255.299 53.4883 255.016 53.9277 254.723 54.3574C255.426 54.8066 256.021 55.373 256.51 56.0566ZM286.979 52.541C287.467 52.4824 287.633 52.5898 287.477 52.8633C287.34 53.1172 286.998 53.4688 286.451 53.918C285.904 54.3672 285.299 54.8359 284.635 55.3242C283.99 55.793 283.404 56.2031 282.877 56.5547C282.35 56.8867 282.027 57.082 281.91 57.1406C280.445 58.0586 278.941 58.918 277.398 59.7188C275.855 60.5 274.234 61.1152 272.535 61.5645C271.148 61.9746 270.191 61.7402 269.664 60.8613C269.137 59.9824 268.98 58.9277 269.195 57.6973C269.41 55.7637 270.084 54.0059 271.217 52.4238C271.549 52.0527 271.91 51.9258 272.301 52.043C272.711 52.1406 273.014 52.375 273.209 52.7461C273.404 53.0977 273.355 53.4785 273.062 53.8887C272.418 54.8066 271.881 55.832 271.451 56.9648C271.021 58.0781 270.885 59.1914 271.041 60.3047C271.451 60.6953 272.018 60.8223 272.74 60.6855C273.463 60.5488 274.146 60.3438 274.791 60.0703C275.104 59.9531 275.377 59.8652 275.611 59.8066C277.701 58.9473 279.713 57.9219 281.646 56.7305C283.6 55.5391 285.377 54.1426 286.979 52.541ZM273.062 49.6406C272.34 49.543 271.959 49.2207 271.92 48.6738C271.9 48.127 272.096 47.6484 272.506 47.2383C272.936 46.8281 273.443 46.7988 274.029 47.1504C274.381 47.4043 274.537 47.7266 274.498 48.1172C274.459 48.4883 274.303 48.8301 274.029 49.1426C273.756 49.4551 273.434 49.6211 273.062 49.6406ZM320.201 52.3652C320.377 52.3848 320.484 52.4629 320.523 52.5996C320.582 52.7363 320.572 52.8633 320.494 52.9805C320.436 53.0977 320.318 53.1562 320.143 53.1562C319.244 53 318.326 52.9023 317.389 52.8633C314.635 52.707 311.871 52.668 309.098 52.7461C308.551 52.7656 307.994 52.7852 307.428 52.8047C306.686 54.7773 305.953 56.7598 305.23 58.752C305.27 58.9473 305.299 59.1426 305.318 59.3379C305.436 61.0566 305.162 62.7949 304.498 64.5527C303.854 66.3301 302.906 67.8242 301.656 69.0352C301.402 69.2305 301.139 69.2598 300.865 69.123C300.611 69.0059 300.484 68.791 300.484 68.4785C300.484 68.4785 300.484 68.4688 300.484 68.4492C300.484 68.4297 300.484 68.4004 300.484 68.3613C300.484 68.3223 300.484 68.2832 300.484 68.2441C300.484 68.2051 300.484 68.1758 300.484 68.1562C300.484 68.1367 300.484 68.127 300.484 68.127C300.836 66.6816 301.227 65.2656 301.656 63.8789C302.398 61.4766 303.18 59.0938 304 56.7305C303.551 55.9297 302.926 55.2852 302.125 54.7969C300.348 56.3398 298.434 57.7461 296.383 59.0156C294.352 60.2852 292.242 61.4668 290.055 62.5605C289.352 63.6348 288.365 64.4551 287.096 65.0215C285.846 65.6074 284.625 65.8516 283.434 65.7539C283.297 65.7344 283.199 65.6758 283.141 65.5781C283.082 65.4805 283.062 65.373 283.082 65.2559C283.102 65.1582 283.18 65.0801 283.316 65.0215C284.586 64.3965 285.855 63.7715 287.125 63.1465C287.77 62.6191 288.209 62.0332 288.443 61.3887C288.678 60.7246 288.57 60.041 288.121 59.3379C287.496 58.4785 287.018 57.5312 286.686 56.4961C286.354 55.4609 286.256 54.4062 286.393 53.332C286.471 52.4922 286.744 51.7109 287.213 50.9883C287.682 50.2656 288.316 49.7383 289.117 49.4062C289.352 49.3281 289.635 49.2598 289.967 49.2012C290.299 49.1426 290.592 49.1621 290.846 49.2598C291.1 49.3379 291.227 49.5527 291.227 49.9043C291.188 50.1191 291.07 50.2656 290.875 50.3438C289.84 50.8711 289.186 51.6523 288.912 52.6875C288.658 53.7031 288.678 54.7285 288.971 55.7637C289.166 56.4277 289.43 57.0625 289.762 57.668C290.074 58.2148 290.318 58.7715 290.494 59.3379C290.689 59.9043 290.719 60.5195 290.582 61.1836C290.582 61.2617 290.572 61.3301 290.553 61.3887C291.373 60.959 292.184 60.5195 292.984 60.0703C295.973 58.4688 298.766 56.584 301.363 54.416C301.09 54.2988 300.807 54.2109 300.514 54.1523C299.713 53.9375 298.902 53.8301 298.082 53.8301C297.926 53.8301 297.818 53.7812 297.76 53.6836C297.701 53.5664 297.682 53.4492 297.701 53.332C297.74 53.2148 297.828 53.1367 297.965 53.0977C298.902 52.8828 299.84 52.7168 300.777 52.5996C301.695 52.502 302.623 52.4141 303.561 52.3359C304.85 51.0273 305.992 49.5918 306.988 48.0293C307.984 45.0996 308.922 42.1504 309.801 39.1816C309.82 39.084 309.85 38.9961 309.889 38.918C310.26 37.668 310.523 36.4082 310.68 35.1387C310.777 34.6309 311.012 34.3086 311.383 34.1719C311.773 34.0352 312.145 34.0742 312.496 34.2891C312.867 34.4844 313.043 34.8457 313.023 35.373C312.613 37.8145 311.969 40.1973 311.09 42.5215C310.934 43.0098 310.777 43.498 310.621 43.9863C309.664 46.7012 308.688 49.416 307.691 52.1309C311.871 51.9941 316.041 52.0723 320.201 52.3652ZM306.08 50.6953C305.631 51.2422 305.182 51.7695 304.732 52.2773C305.006 52.2578 305.279 52.2383 305.553 52.2188C305.729 51.7109 305.904 51.2031 306.08 50.6953ZM300.279 53.4199C300.826 53.5762 301.344 53.7715 301.832 54.0059C302.164 53.7129 302.496 53.4102 302.828 53.0977C301.969 53.1758 301.119 53.2832 300.279 53.4199ZM304.615 61.8281C304.752 61.2227 304.811 60.6172 304.791 60.0117C304.049 62.1016 303.355 64.2012 302.711 66.3105C303.219 65.666 303.629 64.9336 303.941 64.1133C304.254 63.3125 304.479 62.5508 304.615 61.8281ZM304.205 56.0566C304.576 55.002 304.947 53.9473 305.318 52.8926C304.889 52.9316 304.459 52.9609 304.029 52.9805C303.541 53.4688 303.043 53.9473 302.535 54.416C303.199 54.8652 303.756 55.4121 304.205 56.0566ZM338.512 52.4531C338.707 52.6875 338.678 52.9512 338.424 53.2441C338.189 53.5371 337.906 53.8203 337.574 54.0938C337.34 54.2891 337.174 54.4453 337.076 54.5625C336.334 55.2266 335.104 56.1055 333.385 57.1992C331.666 58.293 329.781 59.3086 327.73 60.2461C325.68 61.1836 323.805 61.75 322.105 61.9453C320.406 62.1406 319.215 61.6816 318.531 60.5684C317.887 58.9277 317.75 57.2188 318.121 55.4414C318.473 53.6445 319.176 52.0527 320.23 50.666C320.855 49.9238 321.607 49.5137 322.486 49.4355C323.365 49.3574 323.912 49.8848 324.127 51.0176C324.264 51.584 324.098 52.209 323.629 52.8926C323.16 53.5566 322.574 54.1719 321.871 54.7383C321.188 55.3047 320.592 55.6953 320.084 55.9102C319.85 57.1406 319.781 58.1855 319.879 59.0449C320.035 60.2949 320.777 60.9004 322.105 60.8613C323.453 60.8223 325.016 60.4414 326.793 59.7188C328.59 58.9766 330.26 58.166 331.803 57.2871C333.346 56.4082 334.41 55.7441 334.996 55.2949C336.109 54.5137 337.096 53.5957 337.955 52.541C338.033 52.4434 338.121 52.3945 338.219 52.3945C338.336 52.375 338.434 52.3945 338.512 52.4531ZM322.311 51.6328C321.432 52.2383 320.797 53.2344 320.406 54.6211C320.895 54.1719 321.344 53.6738 321.754 53.127C322.164 52.5605 322.35 52.0625 322.311 51.6328Z" fill="#21306F"/>
</svg>
